<?xml version="1.0" encoding="UTF-8"?>
<svg width="21px" height="20px" viewBox="0 0 21 20" version="1.1" xmlns="http://www.w3.org/2000/svg" xmlns:xlink="http://www.w3.org/1999/xlink">
    <!-- Generator: sketchtool 61.2 (101010) - https://sketch.com -->
    <title>Go to link</title>
    <desc>Created with sketchtool.</desc>
    <g id="Asset-Artboard-Page" stroke="none" stroke-width="1" fill="none" fill-rule="evenodd">
        <g id="ui/Medium/bag-purchase-ui/Medium/link" transform="translate(0.125950, 0.000000)" fill="#004F9F">
            <path d="M8.88236016,6.9349037 C9.66124622,6.94337516 10.4377711,7.16657645 11.1195024,7.603533 C11.3765914,7.76754946 11.6141271,7.95926481 11.8282358,8.17566426 C11.9903159,8.33802052 12.0744189,8.56143301 12.0598151,8.78939079 C12.0467398,9.00998715 11.9460327,9.20338865 11.7937043,9.3386685 C11.6413655,9.47395765 11.4374049,9.55111294 11.2180692,9.5381142 C11.0228811,9.52642828 10.8388619,9.44357616 10.7004277,9.30487023 C10.1852467,8.79082531 9.51069796,8.53380855 8.83615212,8.53380855 C8.16160628,8.53380855 7.48705752,8.79082531 6.9722143,9.30453394 L2.34735018,13.9019356 C1.83181581,14.4173263 1.57405269,15.0928436 1.57405269,15.7683642 C1.57405269,16.4437662 1.83172548,17.119176 2.34708429,17.6345562 C2.86244139,18.1499134 3.53784254,18.4075879 4.21324696,18.4075879 C4.8885274,18.4075879 5.5638157,18.1500078 6.07915735,17.6348378 L8.81561417,14.9148528 C9.41116589,15.1400426 10.0366477,15.2741973 10.6711454,15.3132778 L7.21802446,18.763332 C6.42695862,19.5569878 5.35187882,20.0021017 4.23088222,19.9998612 C3.06237113,19.9993488 2.00468858,19.5252876 1.2392025,18.7592709 C0.473672288,17.99321 0.000369894287,16.9351589 0.000701703554,15.7667494 C0.00103621737,14.6470472 0.445346684,13.5732477 1.23572812,12.7805719 L5.84285186,8.17344732 C6.08024889,7.93701305 6.34501562,7.72928337 6.63092032,7.55472634 C7.32213152,7.13271533 8.10342633,6.92643172 8.88236016,6.9349037 Z M15.6712615,0.00104124717 C16.7538793,-0.0236401188 17.845894,0.364673445 18.6907028,1.1718785 C19.5355481,1.97911836 19.9732602,3.05238595 19.9979426,4.13505101 C20.022624,5.21766882 19.6343104,6.30968352 18.8271054,7.15449238 C18.7820289,7.20190453 18.7360296,7.2478685 18.6890112,7.29250065 L14.0792949,11.9023737 C13.5474367,12.4358399 12.8829099,12.8176621 12.1543926,13.0083203 L11.9235049,13.0502952 L11.8195797,13.069795 L11.6247193,13.0976171 L11.5206431,13.0976171 L11.2973618,13.1182421 L10.8935826,13.1182421 L10.890106,13.1388671 L10.8463134,13.1388671 C10.7046991,13.1322762 10.5634186,13.1184297 10.4234136,13.0969804 C10.3040137,13.0775483 10.1846306,13.0517237 10.0652329,13.0227271 L9.88573755,12.9728736 C9.82407408,12.954346 9.7654034,12.9359752 9.70983841,12.9143529 C9.67706248,12.9015987 9.63883313,12.8879093 9.60059076,12.8742543 C9.56789297,12.862579 9.53518306,12.8509357 9.50683062,12.8399788 L9.31099764,12.7569885 C8.86204373,12.5489026 8.4535941,12.2631369 8.10395313,11.9125362 C7.94261319,11.7509247 7.85851024,11.5275122 7.87311402,11.2995544 C7.88618931,11.0789581 7.98689639,10.8855566 8.13922479,10.7502767 C8.29156365,10.6149876 8.49552427,10.5378323 8.71485996,10.550831 C8.91004803,10.562517 9.09406728,10.6453691 9.23250147,10.784075 C9.74768242,11.2981199 10.4222312,11.5551367 11.096777,11.5551367 C11.7713229,11.5551367 12.4458716,11.2981199 12.9609875,10.7841399 L14.1120559,9.63650937 L17.5755714,6.17299375 C18.0933547,5.65521044 18.3522358,4.97671384 18.3522358,4.29822264 C18.3522358,3.61973144 18.0933547,2.94123484 17.5755714,2.42345153 C17.0577881,1.90566821 16.3792915,1.6467871 15.7008003,1.6467871 C15.0222114,1.6467871 14.3436171,1.90574279 13.8258056,2.42367527 L11.1028404,5.15981639 C10.5095781,4.93462292 9.88633015,4.79970014 9.25406017,4.759363 L12.7062338,1.31022398 C13.513684,0.464106821 14.5877668,0.0257426047 15.6712615,0.00104124717 Z" id="Combined-Shape"></path>
        </g>
    </g>
</svg>
