<?xml version="1.0" encoding="UTF-8"?>
<svg width="21px" height="20px" viewBox="0 0 21 20" version="1.1" xmlns="http://www.w3.org/2000/svg" xmlns:xlink="http://www.w3.org/1999/xlink">
    <!-- Generator: sketchtool 61.2 (101010) - https://sketch.com -->
    <title>Linkedin</title>
    <desc>Created with sketchtool.</desc>
    <g id="Asset-Artboard-Page" stroke="none" stroke-width="1" fill="none" fill-rule="evenodd">
        <g id="ui/Medium/bag-purchase-ui/social/linkedin" transform="translate(0.125950, 0.000000)" fill="#004F9F">
            <path d="M17.65625,0 C18.9486695,0 20,1.05133055 20,2.34375 L20,17.65625 C20,18.9486695 18.9486695,20 17.65625,20 L2.34375,20 C1.05133055,20 0,18.9486695 0,17.65625 L0,2.34375 C0,1.05133055 1.05133055,0 2.34375,0 L17.65625,0 Z M18.4375,17.65625 L18.4375,2.34375 C18.4375,1.91299438 18.0870056,1.5625 17.65625,1.5625 L2.34375,1.5625 C1.91299438,1.5625 1.5625,1.91299438 1.5625,2.34375 L1.5625,17.65625 C1.5625,18.0870056 1.91299438,18.4375 2.34375,18.4375 L17.65625,18.4375 C18.0870056,18.4375 18.4375,18.0870056 18.4375,17.65625 Z M15.4463422,11.174416 L15.4463422,15.2097952 L13.1068846,15.2097952 L13.1068846,11.4446814 C13.1068846,10.4988541 12.7685073,9.853364 11.9217012,9.853364 C11.2752721,9.853364 10.8905817,10.288377 10.7213423,10.709179 C10.6596254,10.859614 10.6437394,11.0689999 10.6437394,11.2795785 L10.6437394,15.2097952 L8.30349505,15.2097952 C8.30349505,15.2097952 8.33501332,8.83292824 8.30349505,8.17223726 L10.643511,8.17223726 L10.643511,9.16978294 C10.6387655,9.17724379 10.6325988,9.1852883 10.6281325,9.19252076 L10.643511,9.19252076 L10.643511,9.16978294 C10.954405,8.69094376 11.509629,8.00690591 12.7523929,8.00690591 C14.2920934,8.00690591 15.4463422,9.01274988 15.4463422,11.174416 Z M5.85549959,4.77978528 C6.65617028,4.77978528 7.14833241,5.30491215 7.16371089,5.99547188 C7.16371089,6.67108454 6.65617028,7.21204668 5.84007035,7.21204668 L5.8244381,7.21204668 C5.03975494,7.21204668 4.53125,6.67098303 4.53125,5.99547188 C4.53125,5.30491215 5.05490503,4.77978528 5.85549959,4.77978528 Z M4.67023998,15.2097952 L4.67023998,8.17223728 L7.00959608,8.17223728 L7.00959608,15.2097952 L4.67023998,15.2097952 Z" id="Shape"></path>
        </g>
    </g>
</svg>
