<?xml version="1.0" encoding="UTF-8"?>
<svg width="21px" height="20px" viewBox="0 0 21 20" version="1.1" xmlns="http://www.w3.org/2000/svg" xmlns:xlink="http://www.w3.org/1999/xlink">
    <!-- Generator: sketchtool 61.2 (101010) - https://sketch.com -->
    <title>Mail</title>
    <desc>Created with sketchtool.</desc>
    <g id="Asset-Artboard-Page" stroke="none" stroke-width="1" fill="none" fill-rule="evenodd">
        <g id="ui/Medium/bag-purchase-ui/Medium/mail" transform="translate(0.125950, 0.000000)" fill="#004F9F">
            <path d="M19.21875,2.1875 C19.6434766,2.1875 20,2.53625 20,2.96875 L20,2.96875 L20,17.03125 C20,17.4627344 19.6502344,17.8125 19.21875,17.8125 L19.21875,17.8125 L0.78125,17.8125 C0.349765625,17.8125 0,17.4627344 0,17.03125 L0,17.03125 L0,2.96875 C0,2.55011719 0.34171875,2.1875 0.78125,2.1875 L0.78125,2.1875 Z M18.4375,4.74691421 L13.2417578,9.51851583 C12.3551563,10.3328127 11.2038672,10.7812502 10,10.7812502 C8.79613281,10.7812502 7.64484375,10.3328127 6.75824219,9.51851583 L6.75824219,9.51851583 L1.5625,4.74691421 L1.5625,16.2500003 L18.4375,16.2500003 L18.4375,4.74691421 Z M11.5625,12.34375 C11.9939844,12.34375 12.34375,12.6935156 12.34375,13.125 C12.34375,13.5564844 11.9939844,13.90625 11.5625,13.90625 L11.5625,13.90625 L8.4375,13.90625 C8.00601562,13.90625 7.65625,13.5564844 7.65625,13.125 C7.65625,12.6935156 8.00601562,12.34375 8.4375,12.34375 L8.4375,12.34375 Z M17.2130474,3.75 L2.78695315,3.75 L7.8151174,8.36769531 C8.41269555,8.91652344 9.18863308,9.21875 10.0000003,9.21875 C10.8113675,9.21875 11.587305,8.91652344 12.1848832,8.36769531 L12.1848832,8.36769531 L17.2130474,3.75 Z" id="Combined-Shape"></path>
        </g>
    </g>
</svg>
