<?xml version="1.0" encoding="UTF-8"?>
<svg width="21px" height="20px" viewBox="0 0 21 20" version="1.1" xmlns="http://www.w3.org/2000/svg" xmlns:xlink="http://www.w3.org/1999/xlink">
    <!-- Generator: sketchtool 61.2 (101010) - https://sketch.com -->
    <title>53A9F837-56F2-4E2E-96EC-B07099BC0960</title>
    <desc>Created with sketchtool.</desc>
    <g id="Asset-Artboard-Page" stroke="none" stroke-width="1" fill="none" fill-rule="evenodd">
        <g id="ui/Medium/bag-purchase-ui/Medium/print" transform="translate(0.125950, 0.000000)" fill="#004F9F">
            <path d="M19.21875,2.96875 L16.0546875,2.96875 L16.0546875,0.78125 C16.0546875,0.349731445 15.7049561,0 15.2734375,0 L4.7265625,0 C4.29504395,0 3.9453125,0.349731445 3.9453125,0.78125 L3.9453125,2.96875 L0.78125,2.96875 C0.349731445,2.96875 0,3.31848145 0,3.75 L0,16.25 C0,16.6815186 0.349731445,17.03125 0.78125,17.03125 L3.9453125,17.03125 L3.9453125,19.21875 C3.9453125,19.6502686 4.29504395,20 4.7265625,20 L15.2734375,20 C15.7049561,20 16.0546875,19.6502686 16.0546875,19.21875 L16.0546875,17.03125 L19.21875,17.03125 C19.6502686,17.03125 20,16.6815186 20,16.25 L20,3.75 C20,3.31848145 19.6502686,2.96875 19.21875,2.96875 Z M5.5078125,1.5625 L14.4921875,1.5625 L14.4921875,2.96875 L5.5078125,2.96875 L5.5078125,1.5625 Z M14.4921875,18.4375 L5.5078125,18.4375 L5.5078125,14.0625 L14.4921875,14.0625 L14.4921875,18.4375 Z M18.4375,15.46875 L16.0546875,15.46875 L16.0546875,14.0625 L16.796875,14.0625 C17.2283936,14.0625 17.578125,13.7127686 17.578125,13.28125 C17.578125,12.8497314 17.2283936,12.5 16.796875,12.5 C15.9124756,12.5 3.81500242,12.5 3.203125,12.5 C2.77160645,12.5 2.421875,12.8497314 2.421875,13.28125 C2.421875,13.7127686 2.77160645,14.0625 3.203125,14.0625 L3.9453125,14.0625 L3.9453125,15.46875 L1.5625,15.46875 L1.5625,4.53125 L18.4375,4.53125 L18.4375,15.46875 Z M13.28125,5.9375 L16.25,5.9375 C16.6815186,5.9375 17.03125,6.28723145 17.03125,6.71875 C17.03125,7.15026855 16.6815186,7.5 16.25,7.5 L13.28125,7.5 C12.8497314,7.5 12.5,7.15026855 12.5,6.71875 C12.5,6.28723145 12.8497314,5.9375 13.28125,5.9375 Z M6.42578125,16.25 C6.42578125,15.8184814 6.7755127,15.46875 7.20703125,15.46875 L12.7929688,15.46875 C13.2244873,15.46875 13.5742188,15.8184814 13.5742188,16.25 C13.5742188,16.6815186 13.2244873,17.03125 12.7929688,17.03125 L7.20703125,17.03125 C6.7755127,17.03125 6.42578125,16.6815186 6.42578125,16.25 Z" id="Shape"></path>
        </g>
    </g>
</svg>