<?xml version="1.0" encoding="UTF-8"?>
<svg width="21px" height="20px" viewBox="0 0 21 20" version="1.1" xmlns="http://www.w3.org/2000/svg" xmlns:xlink="http://www.w3.org/1999/xlink">
    <!-- Generator: sketchtool 61.2 (101010) - https://sketch.com -->
    <title>Share</title>
    <desc>Created with sketchtool.</desc>
    <g id="Asset-Artboard-Page" stroke="none" stroke-width="1" fill="none" fill-rule="evenodd">
        <g id="ui/Medium/bag-purchase-ui/Medium/share" transform="translate(0.125950, 0.000000)" fill="#004F9F">
            <path d="M16.09375,12.1875 C14.8545837,12.1875 13.7484741,12.7676391 13.0322266,13.6705017 L7.68142699,11.0038757 C7.76672363,10.6834412 7.8125,10.3469848 7.8125,10 C7.8125,9.65301516 7.76672363,9.31655883 7.68142699,8.99612426 L13.0322266,6.32949828 C13.7484741,7.23236086 14.8545837,7.8125 16.09375,7.8125 C18.2476807,7.8125 20,6.06018066 20,3.90625 C20,1.75231934 18.2476807,0 16.09375,0 C13.9398193,0 12.1875,1.75231934 12.1875,3.90625 C12.1875,4.26254273 12.2357178,4.60784914 12.3254395,4.93606566 L6.98440551,7.59765625 C6.26876832,6.68289184 5.1550293,6.09375 3.90625,6.09375 C1.75231934,6.09375 0,7.84606934 0,10 C0,12.1539307 1.75231934,13.90625 3.90625,13.90625 C5.1550293,13.90625 6.26876832,13.3171082 6.98440551,12.4023438 L12.3254395,15.0639343 C12.2357178,15.3921509 12.1875,15.7374573 12.1875,16.09375 C12.1875,18.2476807 13.9398193,20 16.09375,20 C18.2476807,20 20,18.2476807 20,16.09375 C20,13.9398193 18.2476807,12.1875 16.09375,12.1875 Z M16.09375,1.5625 C17.3861695,1.5625 18.4375,2.61383055 18.4375,3.90625 C18.4375,5.19866945 17.3861695,6.25 16.09375,6.25 C14.8013305,6.25 13.75,5.19866945 13.75,3.90625 C13.75,2.61383055 14.8013305,1.5625 16.09375,1.5625 Z M3.90625,12.34375 C2.61383055,12.34375 1.5625,11.2924195 1.5625,10 C1.5625,8.70758055 2.61383055,7.65625 3.90625,7.65625 C5.19866945,7.65625 6.25,8.70758055 6.25,10 C6.25,11.2924195 5.19866945,12.34375 3.90625,12.34375 Z M16.09375,18.4375 C14.8013305,18.4375 13.75,17.3861695 13.75,16.09375 C13.75,14.8013305 14.8013305,13.75 16.09375,13.75 C17.3861695,13.75 18.4375,14.8013305 18.4375,16.09375 C18.4375,17.3861695 17.3861695,18.4375 16.09375,18.4375 Z" id="Shape"></path>
        </g>
    </g>
</svg>
