<?xml version="1.0" encoding="UTF-8"?>
<svg width="21px" height="20px" viewBox="0 0 21 20" version="1.1" xmlns="http://www.w3.org/2000/svg" xmlns:xlink="http://www.w3.org/1999/xlink">
    <!-- Generator: sketchtool 61.2 (101010) - https://sketch.com -->
    <title>Twitter</title>
    <desc>Created with sketchtool.</desc>
    <g id="Asset-Artboard-Page" stroke="none" stroke-width="1" fill="none" fill-rule="evenodd">
        <g id="ui/Medium/bag-purchase-ui/social/twitter" transform="translate(0.125950, 0.000000)" fill="#004F9F">
            <path d="M17.65625,20 L2.34375,20 C1.05133055,20 0,18.9486695 0,17.65625 L0,2.34375 C0,1.05133055 1.05133055,0 2.34375,0 L17.65625,0 C18.9486695,0 20,1.05133055 20,2.34375 L20,17.65625 C20,18.9486695 18.9486695,20 17.65625,20 Z M2.34375,1.5625 C1.91299438,1.5625 1.5625,1.91299438 1.5625,2.34375 L1.5625,17.65625 C1.5625,18.0870056 1.91299438,18.4375 2.34375,18.4375 L17.65625,18.4375 C18.0870056,18.4375 18.4375,18.0870056 18.4375,17.65625 L18.4375,2.34375 C18.4375,1.91299438 18.0870056,1.5625 17.65625,1.5625 L2.34375,1.5625 Z M15.859375,6.35840774 C15.5327148,6.84337053 15.1320801,7.26479151 14.6552734,7.60222044 C14.6604004,7.70374127 14.6640625,7.80599246 14.6640625,7.91189548 C14.6640625,11.0773002 12.2470703,14.7291285 7.82617188,14.7291285 C6.46606445,14.7291285 5.20483398,14.3383829 4.140625,13.6540302 C4.32958984,13.6781323 4.51855469,13.6868967 4.71557617,13.6868967 C5.83911133,13.6868967 6.87695312,13.3027244 7.69433594,12.6651151 C6.64404297,12.6424738 5.76074219,11.9449746 5.44946289,10.9962296 C5.59521484,11.0283657 5.75048828,11.0371301 5.90429688,11.0371301 C6.12548828,11.0371301 6.33862305,11.0115673 6.53417969,10.9582506 C5.44213867,10.7354891 4.609375,9.76848497 4.609375,8.60428212 L4.609375,8.57798896 C4.93017578,8.75400708 5.30883789,8.86575302 5.69482422,8.87305668 C5.05615234,8.4472535 4.62768555,7.71177529 4.62768555,6.88207991 C4.62768555,6.44020869 4.74926758,6.0297432 4.95654297,5.67113366 C6.14379883,7.12529167 7.91113281,8.07987958 9.90844727,8.17701821 C9.86889648,8.00319119 9.8527832,7.82059977 9.8527832,7.63070471 C9.8527832,6.31093397 10.923584,5.234375 12.2536621,5.234375 C12.939209,5.234375 13.567627,5.52433016 14.0085449,5.99249455 C14.5549316,5.88367006 15.067627,5.68866244 15.5319824,5.41258422 C15.3532715,5.97423541 14.9731445,6.44020869 14.4750977,6.73673715 C14.9592285,6.67538643 15.423584,6.54903317 15.859375,6.35840774 Z" id="Shape"></path>
        </g>
    </g>
</svg>
