<?xml version="1.0" encoding="UTF-8"?>
<svg width="21px" height="20px" viewBox="0 0 21 20" version="1.1" xmlns="http://www.w3.org/2000/svg" xmlns:xlink="http://www.w3.org/1999/xlink">
    <!-- Generator: sketchtool 61.2 (101010) - https://sketch.com -->
    <title>B376F8E4-1CEA-4081-82E9-E57D7AC8A93B</title>
    <desc>Created with sketchtool.</desc>
    <g id="Asset-Artboard-Page" stroke="none" stroke-width="1" fill="none" fill-rule="evenodd">
        <g id="ui/social/youtube" transform="translate(0.125950, 0.000000)" fill="#004F9F">
            <path d="M17.65625,20 L2.34375,20 C1.05133055,20 0,18.9486695 0,17.65625 L0,2.34375 C0,1.05133055 1.05133055,0 2.34375,0 L17.65625,0 C18.9486695,0 20,1.05133055 20,2.34375 L20,17.65625 C20,18.9486695 18.9486695,20 17.65625,20 Z M2.34375,1.5625 C1.91299438,1.5625 1.5625,1.91299438 1.5625,2.34375 L1.5625,17.65625 C1.5625,18.0870056 1.91299438,18.4375 2.34375,18.4375 L17.65625,18.4375 C18.0870056,18.4375 18.4375,18.0870056 18.4375,17.65625 L18.4375,2.34375 C18.4375,1.91299438 18.0870056,1.5625 17.65625,1.5625 L2.34375,1.5625 Z M15.0039063,6.97460938 C15.3128906,7.50166016 15.46875,8.40947266 15.46875,10.0083984 L15.46875,10.0138672 C15.46875,11.6052734 15.3128906,12.5199219 15.0045898,13.0415039 C14.7079102,13.5692383 14.3859375,13.6649414 13.7303711,13.709375 C13.0748047,13.7469727 11.4280273,13.7695312 10.0013672,13.7695312 C8.57197266,13.7695312 6.92451172,13.7469727 6.26962891,13.7086914 C5.61542969,13.6642578 5.29345703,13.5685547 4.99404297,13.0408203 C4.68847656,12.5192383 4.53125,11.6045898 4.53125,10.0131836 L4.53125,10.0077148 C4.53125,8.40947266 4.68847656,7.50166016 4.99404297,6.97460938 C5.29345703,6.44619141 5.61611328,6.34980469 6.2703125,6.31220703 C6.92451172,6.26845703 8.57197266,6.25 10.0013672,6.25 C11.4280273,6.25 13.0748047,6.26845703 13.7296875,6.31289063 C14.3852539,6.34980469 14.7072266,6.446875 15.0039063,6.97460938 Z M8.6328125,12.0605469 L12.0507812,10.0097656 L8.6328125,7.95898438 L8.6328125,12.0605469 Z" id="Shape"></path>
        </g>
    </g>
</svg>