<svg xmlns="http://www.w3.org/2000/svg" width="492" height="511" viewBox="0 0 492 511">
  <g fill="none" fill-rule="evenodd" stroke-linecap="round" stroke-linejoin="round" transform="rotate(180 245.5 255)">
    <path stroke="#4CAFE4" stroke-width="2" d="M245,490 C380.309764,490 490,380.309764 490,245 C490,109.690236 380.309764,0 245,0 C109.690236,0 0,109.690236 0,245 C0,299.728404 41.4235052,327.737658 71.75,368.520833 C116.402319,428.569427 164.418641,490 245,490 Z"/>
    <path stroke="#FC0" d="M245,19 C109.690236,19 1.8189894e-12,128.690236 1.8189894e-12,264 C1.8189894e-12,399.309764 109.690236,509 245,509 C380.309764,509 490,399.309764 490,264 C490,209.271596 448.576495,181.262342 418.25,140.479167 L414.22142,135.072758 C370.687393,76.8000261 323.163919,19 245,19 Z"/>
  </g>
</svg>
