<svg xmlns="http://www.w3.org/2000/svg" width="512" height="512" viewBox="0 0 512 512">
  <path fill-rule="evenodd" d="M470.547506,262.050161 L352.766202,379.831464 C351.204105,381.393562 349.156727,382.17461 347.109348,382.17461 C345.06197,382.17461 343.014591,381.393562 341.452494,379.831464 C339.890397,378.269367 339.109348,376.221989 339.109348,374.17461 C339.109348,372.127232 339.890397,370.079853 341.452494,368.517756 L445.97025,264 L42,264 C39.790861,264 37.790861,263.104569 36.3431458,261.656854 C34.8954305,260.209139 34,258.209139 34,256 C34,253.790861 34.8954305,251.790861 36.3431458,250.343146 C37.790861,248.895431 39.790861,248 42,248 L445.402333,248 L341.452494,144.050161 C339.890397,142.488064 339.109348,140.440685 339.109348,138.393307 C339.109348,136.345928 339.890397,134.29855 341.452494,132.736452 C343.014591,131.174355 345.06197,130.393307 347.109348,130.393307 C349.156727,130.393307 351.204105,131.174355 352.766202,132.736452 L470.547506,250.517756 C472.131889,252.102139 472.912741,254.185751 472.890651,256.262224 C472.912741,258.382165 472.131889,260.465778 470.547506,262.050161 Z"/>
</svg>
