<?xml version="1.0" encoding="UTF-8"?>
<svg width="40px" height="40px" viewBox="0 0 40 40" version="1.1" xmlns="http://www.w3.org/2000/svg" xmlns:xlink="http://www.w3.org/1999/xlink">
    <!-- Generator: sketchtool 62 (101010) - https://sketch.com -->
    <title>D7A9A4B7-5902-4B1C-AA58-F941C0F3D2E9</title>
    <desc>Created with sketchtool.</desc>
    <g id="Asset-Artboard-Page" stroke="none" stroke-width="1" fill="none" fill-rule="evenodd">
        <g id="ui/Thin/arrow-right-light" transform="translate(20.000000, 20.000000) rotate(-90.000000) translate(-20.000000, -20.000000) " fill="#CFDAEE">
            <path d="M36.7615243,20.4726694 L27.5598598,29.674334 C27.437821,29.7963729 27.2778695,29.8573923 27.1179181,29.8573923 C26.9579666,29.8573923 26.7980152,29.7963729 26.6759763,29.674334 C26.5539375,29.5522952 26.4929181,29.3923437 26.4929181,29.2323923 C26.4929181,29.0724408 26.5539375,28.9124894 26.6759763,28.7904505 L34.8414261,20.6250006 L3.28125001,20.6250006 C3.10866102,20.6250006 2.95241102,20.5550451 2.83930826,20.4419423 C2.72620551,20.3288396 2.65625,20.1725896 2.65625,20.0000006 C2.65625,19.8274116 2.72620551,19.6711616 2.83930826,19.5580588 C2.95241102,19.4449561 3.10866102,19.3750006 3.28125001,19.3750006 L34.7970576,19.3750006 L26.6759763,11.2539192 C26.5539375,11.1318803 26.4929181,10.9719289 26.4929181,10.8119774 C26.4929181,10.652026 26.5539375,10.4920745 26.6759763,10.3700357 C26.7980152,10.2479968 26.9579666,10.1869774 27.1179181,10.1869774 C27.2778695,10.1869774 27.437821,10.2479968 27.5598598,10.3700357 L36.7615243,19.5717003 C36.8853042,19.6954802 36.9463082,19.8582624 36.9445825,20.0204868 C36.9463083,20.1861072 36.8853042,20.3488895 36.7615243,20.4726694 Z" id="Path"></path>
        </g>
    </g>
</svg>