<?xml version="1.0" encoding="UTF-8"?>
<svg width="21px" height="20px" viewBox="0 0 21 20" version="1.1" xmlns="http://www.w3.org/2000/svg" xmlns:xlink="http://www.w3.org/1999/xlink">
    <!-- Generator: sketchtool 62 (101010) - https://sketch.com -->
    <title>Ask for princing</title>
    <desc>Created with sketchtool.</desc>
    <g id="Asset-Artboard-Page" stroke="none" stroke-width="1" fill="none" fill-rule="evenodd">
        <g id="ui/Medium/bag-purchase-ui/Medium/Ask-pricing-€" transform="translate(0.030481, 0.000000)">
            <path d="M19.5410152,17.1395879 C19.933929,17.3176579 20.1081843,17.7806096 19.9301143,18.173676 C19.752502,18.5658269 19.2898555,18.741303 18.8961788,18.5627751 C13.4919736,16.1141972 6.50802599,16.1141972 1.10382076,18.5627751 C0.710754359,18.7408452 0.247955307,18.5665899 0.0698852328,18.173676 C-0.108184802,17.7806096 0.0659179673,17.3176579 0.458984365,17.1395879 C1.52877805,16.6549687 2.66036982,16.2557988 3.83529655,15.9461979 C2.29370112,14.3560795 1.40640255,12.2129825 1.40640255,9.96078517 C1.40640255,5.2105714 5.25054918,1.3671875 9.99999977,1.3671875 C14.7502133,1.3671875 18.593597,5.21118175 18.593597,9.96078517 C18.593597,12.2131351 17.7062984,14.3562321 16.164703,15.9461979 C17.3396297,16.2557988 18.4712215,16.6549687 19.5410152,17.1395879 L19.5410152,17.1395879 Z M5.71395885,15.5340576 C7.10815439,15.287323 8.54614267,15.1608277 10.0000001,15.1608277 C11.4538575,15.1608277 12.8918458,15.287323 14.2858888,15.5340576 C16.0102845,14.2054748 17.0310975,12.1458435 17.0310975,9.96078492 C17.0310975,6.0838318 13.8769532,2.9296875 10.0000001,2.9296875 C6.12304697,2.9296875 2.96890268,6.0838318 2.96890268,9.96078492 C2.96890268,12.1458435 3.98971569,14.2054748 5.71395885,15.5340576 Z" id="Shape" fill="#FFFFFF"></path>
            <path d="M5.53218768,10.078125 C5.50036642,9.77305039 5.49970165,9.46534095 5.53019337,9.16015625 L5.14256687,9.16015625 C4.7110944,9.16015625 4.36131686,8.81037871 4.36131686,8.37890625 C4.36131686,7.94743379 4.7110944,7.59765625 5.14256687,7.59765625 L5.9820797,7.59765625 C6.1925295,7.17748746 6.47301753,6.78344502 6.8235438,6.43291876 C8.57785217,4.67861041 11.422148,4.67861041 13.1764564,6.43291876 C13.4815535,6.73801586 13.4815535,7.232676 13.1764564,7.5377731 C12.8713593,7.8428702 12.3766991,7.8428702 12.071602,7.5377731 C10.9274879,6.39365897 9.07251232,6.39365897 7.92839816,7.5377731 C7.90864677,7.5575245 7.88923635,7.57748774 7.87016691,7.59765554 L9.83006695,7.59765625 C10.2615394,7.59765625 10.611317,7.94743379 10.611317,8.37890625 C10.611317,8.81037871 10.2615394,9.16015625 9.83006695,9.16015625 L7.10475578,9.16015625 C7.05782629,9.46424305 7.05885347,9.77429953 7.10783731,10.078125 L9.83006695,10.078125 C10.2615394,10.078125 10.611317,10.4279025 10.611317,10.859375 C10.611317,11.2908475 10.2615394,11.640625 9.83006695,11.640625 L7.88880219,11.640625 C7.90184497,11.654171 7.91504363,11.6676224 7.92839816,11.6809769 C9.07251232,12.825091 10.9274879,12.825091 12.071602,11.6809769 C12.3766991,11.3758798 12.8713593,11.3758798 13.1764564,11.6809769 C13.4815535,11.986074 13.4815535,12.4807341 13.1764564,12.7858312 C11.422148,14.5401396 8.57785217,14.5401396 6.8235438,12.7858312 C6.47845411,12.4407416 6.20124696,12.0534751 5.99192233,11.640625 L5.14256687,11.640625 C4.7110944,11.640625 4.36131686,11.2908475 4.36131686,10.859375 C4.36131686,10.4279025 4.7110944,10.078125 5.14256687,10.078125 L5.53218768,10.078125 L5.53218768,10.078125 Z" id="device" fill="#FFCC00"></path>
        </g>
    </g>
</svg>
