<?xml version="1.0" encoding="UTF-8"?>
<svg width="100px" height="100px" viewBox="0 0 100 100" version="1.1" xmlns="http://www.w3.org/2000/svg" xmlns:xlink="http://www.w3.org/1999/xlink">
    <!-- Generator: sketchtool 64 (101010) - https://sketch.com -->
    <title>11690A8C-E573-4893-8C1C-B6D75FDAE3D2</title>
    <desc>Created with sketchtool.</desc>
    <g id="Main" stroke="none" stroke-width="1" fill="none" fill-rule="evenodd">
        <g id="AAA-Blocs" transform="translate(-515.000000, -4862.000000)">
            <g id="Group-3" transform="translate(0.000000, 4689.000000)">
                <g id="➂/Offset-blocs/3col-selector-configurator" transform="translate(475.000000, 98.000000)">
                    <g id="vcenter" transform="translate(40.000000, 75.000000)">
                        <g id="➁-/☞-Buttons/Other-cta/Big-line-circle">
                            <circle id="Oval" stroke="#004F9F" cx="50" cy="50" r="49.5"></circle>
                            <g id="ui/Thin/arrow-right-light" transform="translate(26.000000, 33.000000)" fill="#004F9F">
                                <path d="M47.828125,1.375 L47.828125,32.625 C47.828125,32.8389607 47.7385919,33.0348878 47.5961334,33.1774299 C47.456107,33.3175384 47.2630614,33.4062501 47.0480194,33.4062501 L0.953539944,33.4062501 C0.737702492,33.4062501 0.54225597,33.3184398 0.400690514,33.1767913 C0.259564259,33.0355823 0.171875,32.840642 0.171875,32.625 L0.171875,1.375 C0.171875,1.16182426 0.26110118,0.965162934 0.403977283,0.821951115 C0.542741192,0.682861152 0.73432549,0.59483778 0.949666131,0.594131457 L47.044873,0.593750017 C47.2615816,0.594704116 47.4558152,0.683545864 47.5966182,0.824348913 C47.738758,0.96648871 47.828125,1.16166477 47.828125,1.375 Z M15.6253672,17 L1.734375,3.24755338 L1.734375,30.7524466 L15.6253672,17 Z M2.8526738,31.84375 L45.1473262,31.84375 L31.2643474,18.0994858 L24.5496037,24.7468255 C24.3973982,24.897505 24.1986916,24.9728126 24,24.9728126 C23.8013084,24.9728126 23.6026018,24.897505 23.4504019,24.7468309 L16.7356526,18.0994858 L2.8526738,31.84375 Z M45.1473146,2.15625 L2.85268539,2.15625 L24,23.0923868 L45.1473146,2.15625 Z M32.3746328,17 L46.265625,30.7524466 L46.265625,3.24755338 L32.3746328,17 Z" id="Shape"></path>
                            </g>
                        </g>
                    </g>
                </g>
            </g>
        </g>
    </g>
</svg>