<?xml version="1.0" encoding="UTF-8"?>
<svg width="20px" height="24px" viewBox="0 0 20 24" version="1.1" xmlns="http://www.w3.org/2000/svg" xmlns:xlink="http://www.w3.org/1999/xlink">
    <!-- Generator: sketchtool 64 (101010) - https://sketch.com -->
    <title>A5FA71A1-CC82-49D6-AA7E-29AA4A4D13A4</title>
    <desc>Created with sketchtool.</desc>
    <g id="UI-kit" stroke="none" stroke-width="1" fill="none" fill-rule="evenodd">
        <g id="UIkit-Socomec---FORMS" transform="translate(-1551.000000, -3962.000000)">
            <g id="Group-4" transform="translate(239.000000, 3617.000000)">
                <g id="➁-/☞-Buttons/BTN-master-padding:30" transform="translate(1282.000000, 327.000000)">
                    <g id="➁-/☞-Buttons/h50/Center-Icon-Left" transform="translate(30.000000, 15.000000)">
                        <g id="center" transform="translate(0.000000, 3.000000)">
                            <g id="ui/Medium/bag-purchase">
                                <path d="M14.53125,23.5625 L4.0011833,23.5625 C2.10386896,23.5595166 0.565330559,22.0223123 0.560701182,20.1250013 L0.549745061,3.87499871 C0.545275594,1.99550793 2.05231529,0.467010374 3.92454796,0.435030311 L3.98139288,0.434520316 C3.98238692,0.434520316 3.98338096,0.434520316 3.984375,0.4375 L16.0769417,0.4375 C17.974256,0.440483411 19.5127944,1.97768767 19.5174238,3.87499871 L19.5269275,18.5625019 C19.5335764,21.2963066 17.3415187,23.5195758 14.6182711,23.5660923 L14.5355876,23.5668339 C14.5341417,23.5668339 14.5326959,23.5668339 14.53125,23.5625 Z" id="Seleted" fill="#FFFFFF"></path>
                                <path d="M9.0234375,21.21875 C9.02099119,21.6502344 8.67112991,22 8.2421875,22 L5.234375,22 C3.51163338,22 2.109375,20.598125 2.109375,18.875 L2.109375,5.125 C2.109375,3.401875 3.51163338,2 5.234375,2 L14.84375,2 C16.5664916,2 17.96875,3.401875 17.96875,5.125 L17.96875,12.6640625 C17.96875,13.0955469 17.6188887,13.4453125 17.1875,13.4453125 C16.755684,13.4453125 16.4058227,13.0955469 16.40625,12.6640625 L16.40625,5.125 C16.4058227,4.2634375 15.7046935,3.5625 14.84375,3.5625 L5.234375,3.5625 C4.37343149,3.5625 3.6723023,4.2634375 3.671875,5.125 L3.671875,18.875 C3.6723023,19.7365625 4.37343149,20.4375 5.234375,20.4375 L8.2421875,20.4375 C8.67112991,20.4375 9.02099119,20.7872656 9.0234375,21.21875 Z" id="fiche" fill="#004F9F"></path>
                                <path d="M17.9476172,17.9203906 C17.9476172,19.3026953 16.7889063,20.1614844 15.8578516,20.8515234 C15.4482422,21.1551172 15.0612891,21.4419141 14.84375,21.7104688 C14.6954297,21.8935938 14.4723438,22 14.2366797,22 C14.0010156,22 13.7779297,21.8935938 13.6296094,21.7104688 C13.4120703,21.4419141 13.0251172,21.1551172 12.6155078,20.8515234 C11.6844531,20.1614844 10.5257422,19.3026953 10.5257422,17.9203906 C10.5257422,17.2614453 10.75875,16.6640625 11.181875,16.2382422 C11.5948438,15.8226172 12.1595313,15.59375 12.7718359,15.59375 C13.4030469,15.59375 13.8844141,15.7978125 14.2366797,16.0942578 C14.5889063,15.7978125 15.0703125,15.59375 15.7015234,15.59375 C16.3138281,15.59375 16.8785156,15.8226172 17.2914844,16.2382422 C17.7146094,16.6640234 17.9476172,17.2614063 17.9476172,17.9203906 Z" id="Path" fill="#4CAFE4"></path>
                            </g>
                        </g>
                    </g>
                </g>
            </g>
        </g>
    </g>
</svg>