<?xml version="1.0" encoding="UTF-8"?>
<svg width="21px" height="20px" viewBox="0 0 21 20" version="1.1" xmlns="http://www.w3.org/2000/svg" xmlns:xlink="http://www.w3.org/1999/xlink">
    <!-- Generator: sketchtool 60.1 (101010) - https://sketch.com -->
    <title>Add to bookmark</title>
    <desc>Created with sketchtool.</desc>
    <g id="Asset-Artboard-Page" stroke="none" stroke-width="1" fill="none" fill-rule="evenodd">
        <g id="ui/Medium/bag-purchase-ui/Medium/bookmark-star" transform="translate(0.502435, 0.000000)">
            <path d="M17.2097778,18.2789612 L10.3346252,15.8348084 C10.1181031,15.7289124 9.86495974,15.7289124 9.64843751,15.8348084 L2.7734375,18.2789612 L2.7734375,1.25 L17.2097778,1.25 L17.2097778,18.2789612 Z" id="Seleted"></path>
            <path d="M17.6785278,0 C18.1100464,0 18.4597778,0.349731439 18.4597778,0.781249987 L18.4597778,0.781249987 L18.4597778,19.2179867 C18.4597778,19.7981259 17.8509522,20.171661 17.3353577,19.9197384 L17.3353577,19.9197384 L9.99160767,17.0936582 L2.64770508,19.9197384 C2.12860109,20.1734921 1.5234375,19.7943112 1.5234375,19.2179867 L1.5234375,19.2179867 L1.5234375,0.781249987 C1.5234375,0.349731439 1.87316895,0 2.3046875,0 L2.3046875,0 Z M16.8972778,1.5625 L3.0859375,1.5625 L3.0859375,17.9664612 L9.64843751,15.5223084 C9.86495974,15.4164124 10.1181031,15.4164124 10.3346252,15.5223084 L10.3346252,15.5223084 L16.8972778,17.9664612 L16.8972778,1.5625 Z" id="bookmark" fill="#004F9F"></path>
            <path d="M9.99996105,10.6667336 L8.32966762,11.5447939 C8.27204718,11.5750614 8.21218449,11.587565 8.15469772,11.5833632 C8.09177922,11.5787645 8.03246274,11.5552238 7.98268706,11.5190678 C7.93293759,11.4829308 7.89223106,11.4338388 7.86843291,11.375473 C7.84671108,11.3221995 7.84012472,11.2615227 7.85110294,11.197529 L8.17022922,9.33783666 L6.81859623,8.02062182 C6.77204493,7.97526604 6.74166674,7.92230803 6.72791119,7.8664383 C6.71286043,7.805308 6.71692768,7.74175323 6.73590975,7.68336087 C6.75491597,7.62489425 6.78905989,7.57103168 6.83723531,7.53037108 C6.88127147,7.49320405 6.93704516,7.46815924 7.00145235,7.45880536 L8.86910831,7.18749592 L9.70430825,5.49547465 C9.73310248,5.43716808 9.77414247,5.39190661 9.82307806,5.36154709 C9.87667023,5.32829864 9.93848597,5.3125 9.99999893,5.3125 C10.0615501,5.3125 10.1234017,5.32831707 10.1770226,5.3615783 C10.2259639,5.39193678 10.2670157,5.43718438 10.2957607,5.49539161 L11.1310016,7.18749592 L12.9987089,7.45881281 C13.0630872,7.46815804 13.1188434,7.49317629 13.1628566,7.53032287 C13.2110026,7.57095737 13.2451076,7.62479137 13.2640944,7.68321903 C13.2830828,7.74165138 13.2871378,7.80524954 13.2720757,7.8664116 C13.2583177,7.92227811 13.2279534,7.97523288 13.1813127,8.02066004 L11.8298844,9.33767063 L12.1489928,11.1974465 C12.1599698,11.261479 12.1533995,11.3221488 12.1316832,11.3754077 C12.1078959,11.4337461 12.0672,11.4827952 12.0174822,11.5189092 C11.9676488,11.5551071 11.908263,11.578668 11.8452913,11.5832818 C11.7878318,11.5874917 11.7280039,11.5750321 11.6705602,11.5448558 L9.99996105,10.6667336 Z" id="Path" fill="#004F9F"></path>
        </g>
    </g>
</svg>
