<?xml version="1.0" encoding="UTF-8"?>
<svg width="21px" height="20px" viewBox="0 0 21 20" version="1.1" xmlns="http://www.w3.org/2000/svg" xmlns:xlink="http://www.w3.org/1999/xlink">
    <!-- Generator: sketchtool 62 (101010) - https://sketch.com -->
    <title>Add to calendar</title>
    <desc>Created with sketchtool.</desc>
    <g id="Asset-Artboard-Page" stroke="none" stroke-width="1" fill="none" fill-rule="evenodd">
        <g id="ui/Medium/bag-purchase-ui/Medium/Calendar-add" transform="translate(0.048780, 0.000000)">
            <polygon id="Selected" points="18.4375 18.4375 1.5625 18.4375 1.5625 7.5 18.4375 7.5"></polygon>
            <path d="M13.984375,0 C14.4158475,-7.92602052e-17 14.765625,0.349777539 14.765625,0.78125 L14.765,1.484 L19.21875,1.484375 C19.6143087,1.484375 19.9411435,1.77824656 19.992869,2.15960432 L20,2.265625 L20,19.21875 C20,19.6502686 19.6502686,20 19.21875,20 L19.21875,20 L0.78125,20 C0.349731445,20 0,19.6502686 0,19.21875 L0,19.21875 L0,2.265625 C0,1.83410645 0.349731445,1.484375 0.78125,1.484375 L0.78125,1.484375 L5.234,1.484 L5.234375,0.78125 C5.234375,0.349777539 5.58415254,7.92602052e-17 6.015625,0 C6.44709746,-7.92602052e-17 6.796875,0.349777539 6.796875,0.78125 L6.796,1.484 L13.203,1.484 L13.203125,0.78125 C13.203125,0.349777539 13.5529025,7.92602052e-17 13.984375,0 Z M18.4375,7.5 L1.5625,7.5 L1.5625,18.4375 L18.4375,18.4375 L18.4375,7.5 Z M5.234,3.046 L1.5625,3.046875 L1.5625,5.9375 L18.4375,5.9375 L18.4375,3.046875 L14.765,3.046 L14.765625,3.7109375 C14.765625,4.14240996 14.4158475,4.4921875 13.984375,4.4921875 C13.5529025,4.4921875 13.203125,4.14240996 13.203125,3.7109375 L13.203,3.046 L6.796,3.046 L6.796875,3.7109375 C6.796875,4.14240996 6.44709746,4.4921875 6.015625,4.4921875 C5.58415254,4.4921875 5.234375,4.14240996 5.234375,3.7109375 L5.234,3.046 Z" id="Calendar" fill="#004F9F"></path>
            <path d="M6.09375,12.96875 C6.09375,12.5372314 6.44348145,12.1875 6.875,12.1875 L9.21875,12.1875 L9.21875,9.84375 C9.21875,9.41223145 9.56848145,9.0625 10,9.0625 C10.4315186,9.0625 10.78125,9.41223145 10.78125,9.84375 L10.78125,12.1875 L13.125,12.1875 C13.5565186,12.1875 13.90625,12.5372314 13.90625,12.96875 C13.90625,13.4002686 13.5565186,13.75 13.125,13.75 L10.78125,13.75 L10.78125,16.09375 C10.78125,16.5252686 10.4315186,16.875 10,16.875 C9.56848145,16.875 9.21875,16.5252686 9.21875,16.09375 L9.21875,13.75 L6.875,13.75 C6.44348145,13.75 6.09375,13.4002686 6.09375,12.96875 Z" id="Plus" fill="#004F9F"></path>
        </g>
    </g>
</svg>
