<?xml version="1.0" encoding="UTF-8"?>
<svg width="31px" height="27px" viewBox="0 0 31 27" version="1.1" xmlns="http://www.w3.org/2000/svg" xmlns:xlink="http://www.w3.org/1999/xlink">
    <!-- Generator: sketchtool 62 (101010) - https://sketch.com -->
    <title>C4B3678C-E30E-4625-8AC9-23B0DB56678E</title>
    <desc>Created with sketchtool.</desc>
    <g id="Asset-Artboard-Page" stroke="none" stroke-width="1" fill="none" fill-rule="evenodd">
        <g id="ui/Medium/Call" transform="translate(0.146341, 0.000000)" fill="#FFCC00">
            <path d="M24.1751869,15.5408732 C23.7174232,15.13236 22.9756172,15.13236 22.5178535,15.5408732 L19.8012549,17.9664077 L9.93621856,9.1585437 L12.6528171,6.73280478 C13.1105808,6.32429159 13.1105808,5.66176035 12.6528171,5.25324711 L7.95570399,1.05919161 C7.49839804,0.65088271 6.75590534,0.650678364 6.29859945,1.05919161 L0.401916516,6.32408719 C0.0666046307,6.62326847 -0.0336456458,7.07326656 0.1478577,7.46420492 C2.15927128,11.7998811 5.06355302,15.6806546 8.77990749,18.9988284 C12.4964909,22.3172065 16.8429571,24.9103152 21.6986854,26.7060159 C22.1365363,26.8680725 22.640763,26.7785633 22.975846,26.4791777 L28.8723,21.2144864 C29.329606,20.8061775 29.3298349,20.1432376 28.8723,19.7347244 L24.1751869,15.5408732 Z M21.8783569,24.4997578 C17.5968933,22.8240157 13.750763,20.4777724 10.4372406,17.5192703 C7.12348941,14.5605637 4.49569701,11.126723 2.61886596,7.30398751 L7.12715152,3.27873248 L10.16716,5.99302593 L7.45033268,8.41856037 C6.99279787,8.82727795 6.99279787,9.48960477 7.45033268,9.89832234 L18.972702,20.1859481 C19.4302368,20.5944613 20.1720428,20.5944613 20.6298065,20.1859481 L23.3466339,17.7604136 L26.3866424,20.4747071 L21.8783569,24.4997578 Z M29.7340399,12.5167712 C29.5806891,13.0783492 28.9464575,13.4220807 28.317948,13.2853646 C27.6892096,13.1486486 27.3037726,12.5825748 27.4568945,12.0212012 C28.1849677,9.35411467 27.3593909,6.46570762 25.0881964,4.43785538 C22.8213507,2.41388597 19.5881659,1.67145052 16.595078,2.32294633 C15.9663397,2.45966234 15.332337,2.11572649 15.1789862,1.55435295 C15.0256353,0.992774953 15.4113012,0.426905489 16.0400396,0.289985129 C19.8987585,-0.549929504 23.9513403,0.463485725 26.7455297,2.95829778 C29.5433813,5.45637957 30.673371,9.07618672 29.7340399,12.5167712 L29.7340399,12.5167712 Z M22.8067018,11.2777443 C23.0932618,9.93898986 22.6208497,8.56529001 21.5432741,7.60316879 C20.4654695,6.64084324 18.9269258,6.21925103 17.427521,6.47490389 C16.7916873,6.58321408 16.1780551,6.21107667 16.0567477,5.64357231 C15.9352115,5.0758636 16.3522341,4.52777328 16.987839,4.41946309 C19.2507937,4.03363369 21.5732576,4.67062009 23.2003785,6.12340676 C24.8277283,7.57639778 25.541153,9.6500265 25.1087953,11.6703176 C25.0016785,12.1716097 24.5102693,12.5206545 23.9591218,12.5206545 C23.2234956,12.5206545 22.668686,11.9235181 22.8067018,11.2777443 Z" id="Shape"></path>
        </g>
    </g>
</svg>