<?xml version="1.0" encoding="UTF-8"?>
<svg width="21px" height="20px" viewBox="0 0 21 20" version="1.1" xmlns="http://www.w3.org/2000/svg" xmlns:xlink="http://www.w3.org/1999/xlink">
    <!-- Generator: sketchtool 60.1 (101010) - https://sketch.com -->
    <title>C02B53F1-F877-4FEE-9637-AD7DC9663CD0</title>
    <desc>Created with sketchtool.</desc>
    <g id="Asset-Artboard-Page" stroke="none" stroke-width="1" fill="none" fill-rule="evenodd">
        <g id="ui/Medium/bag-purchase-ui/Medium/chevron-right-circle" transform="translate(0.390244, 0.000000)" fill="#004F9F">
            <path d="M7.74363259,14.9127818 C7.88001264,15.0490523 8.05048772,15.1171875 8.2380103,15.1171875 C8.40848537,15.1171875 8.59600795,15.0490523 8.73238801,14.9127818 L13.2329299,10.4158555 C13.36931,10.279585 13.4375,10.1092469 13.4375,9.921875 C13.4375,9.73450307 13.36931,9.56416496 13.2329299,9.42789447 L8.73238801,4.93096824 C8.45962789,4.65842725 8.0163927,4.65842725 7.74363259,4.93096824 C7.47087247,5.20350922 7.47087247,5.64638832 7.74363259,5.9189293 L11.7497968,9.921875 L7.74363259,13.9248207 C7.47087247,14.1973617 7.47087247,14.6402408 7.74363259,14.9127818 L7.74363259,14.9127818 Z" id="chevron"></path>
            <path d="M10,19.921875 C15.464716,19.921875 19.921875,15.4817932 19.921875,10 C19.921875,4.51820676 15.464716,0.078125 10,0.078125 C4.53528399,0.078125 0.078125,4.53528399 0.078125,10 C0.078125,15.464716 4.53528399,19.921875 10,19.921875 Z M9.99999985,1.47845849 C14.6962401,1.47845849 18.5215412,5.30375962 18.5215412,9.99999985 C18.5215412,14.6962401 14.6962401,18.5215412 9.99999985,18.5215412 C5.30375962,18.5215412 1.47845849,14.6962401 1.47845849,9.99999985 C1.47845849,5.30375962 5.30375962,1.47845849 9.99999985,1.47845849 Z" id="circle" opacity="0.2"></path>
        </g>
    </g>
</svg>