<?xml version="1.0" encoding="UTF-8"?>
<svg width="21px" height="20px" viewBox="0 0 21 20" version="1.1" xmlns="http://www.w3.org/2000/svg" xmlns:xlink="http://www.w3.org/1999/xlink">
    <!-- Generator: sketchtool 61.2 (101010) - https://sketch.com -->
    <title>Back to</title>
    <desc>Created with sketchtool.</desc>
    <g id="Asset-Artboard-Page" stroke="none" stroke-width="1" fill="none" fill-rule="evenodd">
        <g id="ui/Medium/bag-purchase-ui/Medium/chevron-left-circle" transform="translate(0.125950, 0.000000)" fill="#FFFFFF">
            <path d="M10,0.078125 C15.464716,0.078125 19.921875,4.53528399 19.921875,10 C19.921875,15.464716 15.464716,19.921875 10,19.921875 C4.53528399,19.921875 0.078125,15.4817932 0.078125,10 C0.078125,4.51820676 4.53528399,0.078125 10,0.078125 Z M9.99999985,1.47845849 C5.30375962,1.47845849 1.47845849,5.30375962 1.47845849,9.99999985 C1.47845849,14.6962401 5.30375962,18.5215412 9.99999985,18.5215412 C14.6962401,18.5215412 18.5215412,14.6962401 18.5215412,9.99999985 C18.5215412,5.30375962 14.6962401,1.47845849 9.99999985,1.47845849 Z" id="Circle"></path>
            <path d="M12.2563674,14.9127818 C12.1199874,15.0490523 11.9495123,15.1171875 11.7619897,15.1171875 C11.5915146,15.1171875 11.4039921,15.0490523 11.267612,14.9127818 L6.76707009,10.4158555 C6.63069003,10.279585 6.5625,10.1092469 6.5625,9.921875 C6.5625,9.73450307 6.63069003,9.56416496 6.76707009,9.42789447 L11.267612,4.93096824 C11.5403721,4.65842725 11.9836073,4.65842725 12.2563674,4.93096824 C12.5291275,5.20350922 12.5291275,5.64638832 12.2563674,5.9189293 L8.25020322,9.921875 L12.2563674,13.9248207 C12.5291275,14.1973617 12.5291275,14.6402408 12.2563674,14.9127818 L12.2563674,14.9127818 Z" id="chevron"></path>
        </g>
    </g>
</svg>
