<?xml version="1.0" encoding="UTF-8"?>
<svg width="20px" height="20px" viewBox="0 0 20 20" version="1.1" xmlns="http://www.w3.org/2000/svg" xmlns:xlink="http://www.w3.org/1999/xlink">
    <!-- Generator: sketchtool 61.2 (101010) - https://sketch.com -->
    <title>Close</title>
    <desc>Created with sketchtool.</desc>
    <g id="Asset-Artboard-Page" stroke="none" stroke-width="1" fill-rule="evenodd">
        <g id="ui/Medium/close-circle">
            <path d="M10,0.078125 C15.464716,0.078125 19.921875,4.53528399 19.921875,10 C19.921875,15.464716 15.464716,19.921875 10,19.921875 C4.53528399,19.921875 0.078125,15.4817932 0.078125,10 C0.078125,4.51820676 4.53528399,0.078125 10,0.078125 Z M9.99999985,1.47845849 C5.30375962,1.47845849 1.47845849,5.30375962 1.47845849,9.99999985 C1.47845849,14.6962401 5.30375962,18.5215412 9.99999985,18.5215412 C14.6962401,18.5215412 18.5215412,14.6962401 18.5215412,9.99999985 C18.5215412,5.30375962 14.6962401,1.47845849 9.99999985,1.47845849 Z M7.76550292,6.66061401 L10,8.89511109 L12.2344971,6.66061401 C12.5396729,6.35543823 13.0343628,6.35543823 13.339386,6.66061401 C13.6445618,6.9657898 13.6445618,7.46032714 13.339386,7.76550292 L11.1048889,10 L13.339386,12.2346497 C13.6445618,12.5396729 13.6445618,13.0343628 13.339386,13.339386 C13.0343628,13.6445618 12.5396729,13.6445618 12.2344971,13.339386 L10,11.1048889 L7.76550292,13.339386 C7.46032714,13.6445618 6.96563718,13.6445618 6.66061401,13.339386 C6.35543823,13.0343628 6.35543823,12.5396729 6.66061401,12.2346497 L8.89511109,10 L6.66061401,7.76550292 C6.35543823,7.46032714 6.35543823,6.96563718 6.66061401,6.66061401 C6.96563718,6.35559081 7.46032714,6.35543823 7.76550292,6.66061401 Z" id="Combined-Shape"></path>
        </g>
    </g>
</svg>
