<svg width="20" height="20" xmlns="http://www.w3.org/2000/svg">
 <!-- Generator: sketchtool 61.2 (101010) - https://sketch.com -->

 <title>Close</title>
 <desc>Created with sketchtool.</desc>
 <g>
  <title>background</title>
  <rect fill="none" id="canvas_background" height="402" width="582" y="-1" x="-1"/>
 </g>
 <g>
  <title>Layer 1</title>
  <g fill-rule="evenodd" fill="none" id="Asset-Artboard-Page">
   <g stroke="null" fill="#FFFFFF" id="ui/Medium/close-circle">
    <path stroke="null" id="Combined-Shape" d="m10.138879,-10.421474c11.262937,0 20.449266,9.186308 20.449266,20.449246c0,11.262937 -9.186329,20.449266 -20.449266,20.449266c-11.262937,0 -20.449246,-9.151147 -20.449246,-20.449266c0,-11.298119 9.186308,-20.449246 20.449246,-20.449246zm0,2.886118c-9.679079,0 -17.563127,7.884048 -17.563127,17.563127c0,9.679079 7.884048,17.563127 17.563127,17.563127c9.679079,0 17.563127,-7.884048 17.563127,-17.563127c0,-9.679079 -7.884048,-17.563127 -17.563127,-17.563127zm-4.605366,10.680553l4.605366,4.605366l4.605366,-4.605366c0.628964,-0.628964 1.648533,-0.628964 2.277209,0c0.628964,0.628984 0.628964,1.648245 0,2.277209l-4.605366,4.605366l4.605366,4.605675c0.628964,0.628655 0.628964,1.648224 0,2.276899c-0.628675,0.628964 -1.648245,0.628964 -2.277209,0l-4.605366,-4.605366l-4.605366,4.605366c-0.628964,0.628964 -1.648533,0.628964 -2.277209,0c-0.628964,-0.628675 -0.628964,-1.648245 0,-2.276899l4.605366,-4.605675l-4.605366,-4.605366c-0.628964,-0.628964 -0.628964,-1.648533 0,-2.277209c0.628675,-0.628655 1.648245,-0.628964 2.277209,0z"/>
   </g>
  </g>
 </g>
</svg>
