<?xml version="1.0" encoding="UTF-8"?>
<svg width="21px" height="20px" viewBox="0 0 21 20" version="1.1" xmlns="http://www.w3.org/2000/svg" xmlns:xlink="http://www.w3.org/1999/xlink">
    <!-- Generator: sketchtool 61.2 (101010) - https://sketch.com -->
    <title>592455E3-4724-46AA-BDF2-32E81961DCB8</title>
    <desc>Created with sketchtool.</desc>
    <g id="Asset-Artboard-Page" stroke="none" stroke-width="1" fill="none" fill-rule="evenodd">
        <g id="ui/Medium/bag-purchase-ui/Medium/download" transform="translate(0.125950, 0.000000)" fill="#004F9F">
            <path d="M20,16.25 L20,19.21875 C20,19.6502686 19.6502686,20 19.21875,20 L0.78125,20 C0.349731445,20 0,19.6502686 0,19.21875 L0,16.25 C0,15.8184814 0.349731445,15.46875 0.78125,15.46875 C1.21276855,15.46875 1.5625,15.8184814 1.5625,16.25 L1.5625,18.4375 L18.4375,18.4375 L18.4375,16.25 C18.4375,15.8184814 18.7872314,15.46875 19.21875,15.46875 C19.6502686,15.46875 20,15.8184814 20,16.25 Z M9.44747926,16.802368 C9.74792481,17.1029662 10.2450562,17.1098326 10.5525207,16.802368 L14.9717712,12.382965 C15.276947,12.0779418 15.276947,11.5832519 14.9717712,11.2782287 C14.666748,10.9730529 14.1720581,10.9730529 13.8670349,11.2782287 L10.78125,14.363861 L10.78125,0.781249994 C10.78125,0.349731443 10.4315186,0 10,0 C9.56848145,0 9.21875,0.349731443 9.21875,0.781249994 L9.21875,14.363861 L6.13296509,11.2782287 C5.82794188,10.9730529 5.33325196,10.9730529 5.02822876,11.2782287 C4.72305298,11.5832519 4.72305298,12.0779418 5.02822876,12.382965 L9.44747926,16.802368 Z" id="Shape"></path>
        </g>
    </g>
</svg>