<?xml version="1.0" encoding="UTF-8"?>
<svg width="21px" height="20px" viewBox="0 0 21 20" version="1.1" xmlns="http://www.w3.org/2000/svg" xmlns:xlink="http://www.w3.org/1999/xlink">
    <!-- Generator: sketchtool 62 (101010) - https://sketch.com -->
    <title>Go external link</title>
    <desc>Created with sketchtool.</desc>
    <g id="Asset-Artboard-Page" stroke="none" stroke-width="1" fill="none" fill-rule="evenodd">
        <g id="ui/Medium/bag-purchase-ui/Medium/external-link" transform="translate(0.048780, 0.000000)" fill="#004F9F">
            <path d="M7.5,-8.49940557e-14 C7.93151855,-8.49940557e-14 8.28125,0.349731445 8.28125,0.78125 C8.28125,1.21276855 7.93151855,1.5625 7.5,1.5625 L1.5625,1.5625 L1.5625,18.4375 L18.4375,18.4375 L18.4375,12.5 C18.4375,12.0684814 18.7872314,11.71875 19.21875,11.71875 C19.6502686,11.71875 20,12.0684814 20,12.5 L20,19.21875 C20,19.6502686 19.6502686,20 19.21875,20 L0.78125,20 C0.349731445,20 0,19.6502686 0,19.21875 L0,0.78125 C0,0.349731445 0.349731445,-8.49940557e-14 0.78125,-8.49940557e-14 L7.5,-8.49940557e-14 Z M19.2192244,-1.06310338e-13 C19.654045,-1.06310338e-13 20.0006068,0.35638024 20.0006068,0.781382319 L20.0006068,0.781382319 L20.0006068,7.03125415 C20.0006068,7.46272998 19.6508082,7.81252858 19.2193323,7.81242069 C18.7878565,7.81252858 18.4380579,7.46272998 18.4381658,7.03125415 L18.4381658,7.03125415 L18.4380579,2.66740319 L8.8337016,12.2717595 C8.52857191,12.5768892 8.03397696,12.5768892 7.72884727,12.2717595 C7.42371758,11.9666298 7.42371758,11.4720349 7.72884727,11.1669052 L7.72884727,11.1669052 L17.3332036,1.56254886 L12.9693526,1.56244097 C12.5378768,1.56254886 12.1880782,1.21275027 12.1881861,0.78127443 C12.1880782,0.349798595 12.5378768,-1.06310338e-13 12.9693526,-1.06310338e-13 L12.9693526,-1.06310338e-13 Z" id="Combined-Shape"></path>
        </g>
    </g>
</svg>
