<?xml version="1.0" encoding="UTF-8"?>
<svg width="21px" height="20px" viewBox="0 0 21 20" version="1.1" xmlns="http://www.w3.org/2000/svg" xmlns:xlink="http://www.w3.org/1999/xlink">
    <!-- Generator: sketchtool 60.1 (101010) - https://sketch.com -->
    <title>AE71A76D-66A1-4DFE-812A-C6631585359C</title>
    <desc>Created with sketchtool.</desc>
    <g id="Asset-Artboard-Page" stroke="none" stroke-width="1" fill="none" fill-rule="evenodd">
        <g id="ui/Medium/bag-purchase-ui/Medium/eye-see-view" transform="translate(0.502435, 0.000000)" fill="#004F9F">
            <path d="M19.924469,9.68429566 C18.2519531,6.1631775 14.4488526,2.98828125 10,2.98828125 C4.99420165,2.98828125 1.3960266,6.9041443 0.0755310157,9.68429566 C-0.0251769922,9.89639281 -0.0251769922,10.1426697 0.0755310157,10.3547668 C1.74804688,13.875885 5.55114747,17.0507812 10,17.0507812 C15.0057984,17.0507812 18.6039734,13.1347656 19.924469,10.3547668 C20.025177,10.1426697 20.025177,9.89639281 19.924469,9.68429566 Z M10,15.4882812 C6.40075684,15.4882812 3.41659547,13.1163025 1.66610719,10.0195312 C3.40927125,6.9354248 6.39160157,4.55078125 10,4.55078125 C13.598938,4.55078125 16.5834045,6.92245484 18.3338928,10.0195312 C16.5907288,13.1034851 13.6083985,15.4882812 10,15.4882812 Z M10,6.11328125 C7.84606935,6.11328125 6.09375001,7.86560059 6.09375001,10.0195312 C6.09375001,12.1734619 7.84606935,13.9257812 10,13.9257812 C12.1539307,13.9257812 13.90625,12.1734619 13.90625,10.0195312 C13.90625,7.86560059 12.1539307,6.11328125 10,6.11328125 Z M10,12.3632812 C8.70773317,12.3632812 7.65625001,11.3117981 7.65625001,10.0195312 C7.65625001,8.7271118 8.70773317,7.67578125 10,7.67578125 C11.2924195,7.67578125 12.34375,8.7271118 12.34375,10.0195312 C12.34375,11.3117981 11.2924195,12.3632812 10,12.3632812 L10,12.3632812 Z" id="Shape"></path>
        </g>
    </g>
</svg>