<?xml version="1.0" encoding="UTF-8"?>
<svg width="21px" height="20px" viewBox="0 0 21 20" version="1.1" xmlns="http://www.w3.org/2000/svg" xmlns:xlink="http://www.w3.org/1999/xlink">
    <!-- Generator: sketchtool 62 (101010) - https://sketch.com -->
    <title>Add to BOM</title>
    <desc>Created with sketchtool.</desc>
    <g id="Asset-Artboard-Page" stroke="none" stroke-width="1" fill="none" fill-rule="evenodd">
        <g id="ui/Medium/favorite" transform="translate(0.923657, 0.000000)">
            <path d="M12.6562499,19.6875 L5.87618328,19.6875 C3.97886897,19.6845166 2.4403306,18.1473124 2.43570122,16.2500013 L2.42484674,3.74999871 C2.42027563,1.87050793 3.92731531,0.342010371 5.79954795,0.310030309 L5.85639287,0.309520438 C5.85738691,0.309520438 5.85838095,0.309520438 5.85937498,0.312499998 L14.2019415,0.312499998 C16.0992559,0.315483409 17.6377942,1.85268767 17.6424236,3.74999871 L17.6519273,14.6875019 C17.6585762,17.4213067 15.4665185,19.6445758 12.743271,19.6910923 L12.6605875,19.6918339 C12.6591416,19.6918339 12.6576957,19.6918339 12.6562499,19.6875 Z" id="Seleted"></path>
            <path d="M9.0234375,19.21875 C9.02099119,19.6502344 8.67112991,20 8.2421875,20 L5.234375,20 C3.51163338,20 2.109375,18.598125 2.109375,16.875 L2.109375,3.125 C2.109375,1.401875 3.51163338,0 5.234375,0 L14.84375,0 C16.5664916,0 17.96875,1.401875 17.96875,3.125 L17.96875,10.6640625 C17.96875,11.0955469 17.6188887,11.4453125 17.1875,11.4453125 C16.755684,11.4453125 16.4058227,11.0955469 16.40625,10.6640625 L16.40625,3.125 C16.4058227,2.2634375 15.7046935,1.5625 14.84375,1.5625 L5.234375,1.5625 C4.37343149,1.5625 3.6723023,2.2634375 3.671875,3.125 L3.671875,16.875 C3.6723023,17.7365625 4.37343149,18.4375 5.234375,18.4375 L8.2421875,18.4375 C8.67112991,18.4375 9.02099119,18.7872656 9.0234375,19.21875 Z" id="fiche" fill="#4A4A47"></path>
            <path d="M17.9476178,15.9203906 C17.9476178,17.3026953 16.7889068,18.1614844 15.8578521,18.8515234 C15.4482428,19.1551172 15.0612896,19.4419141 14.8437506,19.7104688 C14.6954303,19.8935938 14.4723443,20 14.2366803,20 C14.0010162,20 13.7779303,19.8935938 13.62961,19.7104688 C13.4120709,19.4419141 13.0251178,19.1551172 12.6155084,18.8515234 C11.6844537,18.1614844 10.5257428,17.3026953 10.5257428,15.9203906 C10.5257428,15.2614453 10.7587506,14.6640625 11.1818756,14.2382422 C11.5948443,13.8226172 12.1595318,13.59375 12.7718365,13.59375 C13.4030475,13.59375 13.8844146,13.7978125 14.2366803,14.0942578 C14.5889068,13.7978125 15.0703131,13.59375 15.701524,13.59375 C16.3138287,13.59375 16.8785162,13.8226172 17.291485,14.2382422 C17.71461,14.6640234 17.9476178,15.2614063 17.9476178,15.9203906 Z" id="Path" fill="#4A4A47"></path>
        </g>
    </g>
</svg>
