<?xml version="1.0" encoding="UTF-8"?>
<svg width="21px" height="20px" viewBox="0 0 21 20" version="1.1" xmlns="http://www.w3.org/2000/svg" xmlns:xlink="http://www.w3.org/1999/xlink">
    <!-- Generator: sketchtool 60.1 (101010) - https://sketch.com -->
    <title>7C0BF672-7DFD-4054-BCD5-54DDDA25B9D4</title>
    <desc>Created with sketchtool.</desc>
    <g id="Asset-Artboard-Page" stroke="none" stroke-width="1" fill="none" fill-rule="evenodd">
        <g id="ui/Medium/jump" transform="translate(0.502435, 0.000000)" fill="#000000">
            <path d="M6.5625,0 C12.51682,0 17.34375,4.82693004 17.34375,10.78125 L17.34375,10.78125 L17.343,17.352 L18.685093,16.0108526 C18.9902227,15.7057229 19.4849255,15.7058308 19.7899473,16.0108526 C20.0950769,16.3159822 20.095077,16.8105772 19.7899473,17.1157069 L17.154805,19.7508493 C16.8559333,20.0829529 16.3336091,20.0947136 16.0198478,19.7809522 L13.3538473,17.1149516 C13.0487176,16.8098219 13.0487176,16.3152269 13.3538473,16.0100973 C13.658977,15.7049676 14.1535719,15.7049676 14.4587016,16.0100973 L15.781,17.332 L15.78125,10.78125 C15.78125,5.77919733 11.7974249,1.70761688 6.82955991,1.56629398 L6.5625,1.5625 L0.78125,1.5625 C0.349777539,1.5625 0,1.21272246 0,0.78125 C0,0.349777539 0.349777539,0 0.78125,0 L0.78125,0 Z" id="Combined-Shape"></path>
        </g>
    </g>
</svg>