<?xml version="1.0" encoding="UTF-8"?>
<svg width="21px" height="20px" viewBox="0 0 21 20" version="1.1" xmlns="http://www.w3.org/2000/svg" xmlns:xlink="http://www.w3.org/1999/xlink">
    <!-- Generator: sketchtool 62 (101010) - https://sketch.com -->
    <title>5684E81A-97E5-40FF-AEB0-621146BF932A</title>
    <desc>Created with sketchtool.</desc>
    <g id="Asset-Artboard-Page" stroke="none" stroke-width="1" fill="none" fill-rule="evenodd">
        <g id="ui/Medium/bag-purchase" transform="translate(0.146341, 0.000000)" fill="#004F9F">
            <path d="M19.0539388,17.172966 L17.152541,13.3701706 C16.8195942,12.7041244 16.1500386,12.2903061 15.4054096,12.2903061 L14.9427631,12.2903061 L15.0364521,12.1967697 C17.8228597,9.41020966 17.8228597,4.87636568 15.0364521,2.0898056 C12.249892,-0.696601865 7.71604789,-0.696601865 4.92948775,2.0898056 C2.14308022,4.87636568 2.14308022,9.41020966 4.92948775,12.1967697 L5.02317674,12.2903061 L4.56053024,12.2903061 C3.81574874,12.2903061 3.14634564,12.7041244 2.81324625,13.3701706 L0.912001093,17.172966 C0.261824085,18.4731674 1.20863196,19.9999619 2.6591325,19.9999619 L17.3068074,19.9999619 C18.7603597,19.9999619 19.7027425,18.4704208 19.0539388,17.172966 Z M6.0345292,3.19484708 C8.21165323,1.01772309 11.7539811,1.01772309 13.9312577,3.19484708 C16.1083817,5.37197114 16.1083817,8.91460419 13.9312577,11.0917282 C13.7023759,11.32061 10.2125382,14.8104477 9.98289346,15.0400925 C9.7532487,14.8104477 6.26341104,11.32061 6.0345292,11.0917282 C3.8572526,8.91460419 3.8572526,5.37197114 6.0345292,3.19484708 Z M17.3068075,18.4371567 L2.6591324,18.4371567 C2.36845243,18.4371567 2.17970121,18.1315231 2.3097061,17.8718185 L4.21095128,14.0691757 C4.27763218,13.9358139 4.41145179,13.8531113 4.56037758,13.8531113 L6.58582929,13.8531113 L9.43037286,16.6976547 C9.73554865,17.0028305 10.2302386,17.0028305 10.5354144,16.6976547 L13.379958,13.8531113 L15.4054097,13.8531113 C15.5543354,13.8531113 15.6881551,13.9358139 15.754836,14.0691757 L17.6562337,17.8718185 C17.786086,18.1316757 17.5971822,18.4371567 17.3068075,18.4371567 Z" id="Shape"></path>
            <path d="M9.98289347,3.83846283 C11.6848588,3.83846283 13.0692887,5.22304537 13.0692887,6.9248581 C13.0692887,8.62682341 11.6848588,10.0114059 9.98289347,10.0114059 C8.28108074,10.0114059 6.8964982,8.62682341 6.8964982,6.9248581 C6.8964982,5.22304537 8.28108074,3.83846283 9.98289347,3.83846283 Z M9.98289347,5.40111542 C9.14274455,5.40111542 8.45915079,6.08470917 8.45915079,6.92485811 C8.45915079,7.76500702 9.14274455,8.44860077 9.98289347,8.44860077 C10.8230424,8.44860077 11.5066361,7.76500702 11.5066361,6.92485811 C11.5066361,6.08470917 10.8230424,5.40111542 9.98289347,5.40111542 Z" id="Ring"></path>
        </g>
    </g>
</svg>