<?xml version="1.0" encoding="UTF-8"?>
<svg width="31px" height="27px" viewBox="0 0 31 27" version="1.1" xmlns="http://www.w3.org/2000/svg" xmlns:xlink="http://www.w3.org/1999/xlink">
    <!-- Generator: sketchtool 62 (101010) - https://sketch.com -->
    <title>Mail</title>
    <desc>Created with sketchtool.</desc>
    <g id="Asset-Artboard-Page" stroke="none" stroke-width="1" fill="none" fill-rule="evenodd">
        <g id="ui/Medium/mail" transform="translate(0.146341, 0.000000)" fill="#FFCC00">
            <path d="M28.828125,2.92968759 C29.4652148,2.92968759 30,3.3967635 30,3.97600459 L30,3.97600459 L30,22.8097105 C30,23.3875914 29.4753516,23.8560275 28.828125,23.8560275 L28.828125,23.8560275 L1.171875,23.8560275 C0.524648438,23.8560275 0,23.3875914 0,22.8097105 L0,22.8097105 L0,3.97600459 C0,3.41533562 0.512578125,2.92968759 1.171875,2.92968759 L1.171875,2.92968759 Z M27.65625,6.35747458 L19.8626367,12.7480127 C18.5327344,13.8385889 16.8058008,14.4391748 15,14.4391748 C13.1941992,14.4391748 11.4672656,13.8385889 10.1373633,12.7480127 L10.1373633,12.7480127 L2.34375,6.35747458 L2.34375,21.7633939 L27.65625,21.7633939 L27.65625,6.35747458 Z M17.34375,16.5318085 C17.9909766,16.5318085 18.515625,17.0002447 18.515625,17.5781255 C18.515625,18.1560064 17.9909766,18.6244425 17.34375,18.6244425 L17.34375,18.6244425 L12.65625,18.6244425 C12.0090234,18.6244425 11.484375,18.1560064 11.484375,17.5781255 C11.484375,17.0002447 12.0090234,16.5318085 12.65625,16.5318085 L12.65625,16.5318085 Z M25.8195712,5.02232158 L4.18042973,5.02232158 L11.7226761,11.2067351 C12.6190433,11.9417728 13.7829496,12.3465406 15.0000004,12.3465406 C16.2170513,12.3465406 17.3809576,11.9417728 18.2773248,11.2067351 L18.2773248,11.2067351 L25.8195712,5.02232158 Z" id="Combined-Shape"></path>
        </g>
    </g>
</svg>
