<?xml version="1.0" encoding="UTF-8"?>
<svg width="21px" height="20px" viewBox="0 0 21 20" version="1.1" xmlns="http://www.w3.org/2000/svg" xmlns:xlink="http://www.w3.org/1999/xlink">
    <!-- Generator: sketchtool 62 (101010) - https://sketch.com -->
    <title>CDC709B2-BE26-4F2D-8654-71B855598FE1</title>
    <desc>Created with sketchtool.</desc>
    <g id="Asset-Artboard-Page" stroke="none" stroke-width="1" fill="none" fill-rule="evenodd">
        <g id="ui/Medium/bag-purchase-ui/Medium/more-vert-circle" transform="translate(0.030481, 0.000000)" fill="#004F9F">
            <path d="M0.078125,10 C0.078125,4.53528399 4.51820676,0.078125 10,0.078125 C15.4817932,0.078125 19.921875,4.53528399 19.921875,10 C19.921875,15.464716 15.464716,19.921875 10,19.921875 C4.53528399,19.921875 0.078125,15.464716 0.078125,10 Z M18.5215412,9.99999985 C18.5215412,5.30375962 14.6962401,1.47845849 9.99999985,1.47845849 C5.30375962,1.47845849 1.47845849,5.30375962 1.47845849,9.99999985 C1.47845849,14.6962401 5.30375962,18.5215412 9.99999985,18.5215412 C14.6962401,18.5215412 18.5215412,14.6962401 18.5215412,9.99999985 Z M10,10.9765625 C9.4606018,10.9765625 9.0234375,10.5393982 9.0234375,10 C9.0234375,9.4606018 9.4606018,9.0234375 10,9.0234375 C10.5392456,9.0234375 10.9765625,9.4606018 10.9765625,10 C10.9765625,10.5393982 10.5392456,10.9765625 10,10.9765625 Z M10,14.8828125 C9.4606018,14.8828125 9.0234375,14.4456482 9.0234375,13.90625 C9.0234375,13.3668518 9.4606018,12.9296875 10,12.9296875 C10.5392456,12.9296875 10.9765625,13.3668518 10.9765625,13.90625 C10.9765625,14.4456482 10.5392456,14.8828125 10,14.8828125 Z M10,7.0703125 C9.4606018,7.0703125 9.0234375,6.6331482 9.0234375,6.09375 C9.0234375,5.5543518 9.4606018,5.1171875 10,5.1171875 C10.5392456,5.1171875 10.9765625,5.5543518 10.9765625,6.09375 C10.9765625,6.6331482 10.5392456,7.0703125 10,7.0703125 Z" id="Shape"></path>
        </g>
    </g>
</svg>