<?xml version="1.0" encoding="UTF-8"?>
<svg width="16px" height="15px" viewBox="0 0 16 15" version="1.1" xmlns="http://www.w3.org/2000/svg" xmlns:xlink="http://www.w3.org/1999/xlink">
    <!-- Generator: sketchtool 60.1 (101010) - https://sketch.com -->
    <title>View more</title>
    <desc>Created with sketchtool.</desc>
    <g id="Asset-Artboard-Page" stroke="none" stroke-width="1" fill="none" fill-rule="evenodd">
        <g id="ui/Medium/Plus-disc" transform="translate(0.502435, 0.000000)" fill="#FFCC00">
            <path d="M7.5,0 C11.6456222,0 15,3.35494995 15,7.5 C15,11.6456222 11.64505,15 7.5,15 C3.35437775,15 0,11.64505 0,7.5 C0,3.35437775 3.35494995,0 7.5,0 Z M7.5,4.5703125 C7.17636108,4.5703125 6.9140625,4.83261108 6.9140625,5.15625 L6.9140625,5.15625 L6.9140625,6.9140625 L5.15625,6.9140625 C4.83261108,6.9140625 4.5703125,7.17636108 4.5703125,7.5 C4.5703125,7.82363892 4.83261108,8.0859375 5.15625,8.0859375 L5.15625,8.0859375 L6.9140625,8.0859375 L6.9140625,9.84375 C6.9140625,10.1673889 7.17636108,10.4296875 7.5,10.4296875 C7.82363892,10.4296875 8.0859375,10.1673889 8.0859375,9.84375 L8.0859375,9.84375 L8.0859375,8.0859375 L9.84375,8.0859375 C10.1673889,8.0859375 10.4296875,7.82363892 10.4296875,7.5 C10.4296875,7.17636108 10.1673889,6.9140625 9.84375,6.9140625 L9.84375,6.9140625 L8.0859375,6.9140625 L8.0859375,5.15625 C8.0859375,4.83261108 7.82363892,4.5703125 7.5,4.5703125 Z" id="Shape"></path>
        </g>
    </g>
</svg>
