<?xml version="1.0" encoding="UTF-8"?>
<svg width="21px" height="20px" viewBox="0 0 21 20" version="1.1" xmlns="http://www.w3.org/2000/svg" xmlns:xlink="http://www.w3.org/1999/xlink">
    <!-- Generator: sketchtool 62 (101010) - https://sketch.com -->
    <title>Search</title>
    <desc>Created with sketchtool.</desc>
    <g id="Asset-Artboard-Page" stroke="none" stroke-width="1" fill="none" fill-rule="evenodd">
        <g id="ui/Medium/search" transform="translate(0.097561, 0.000000)" fill="#FFFFFF">
            <path d="M19.7711182,18.6663818 L15.0642395,13.9595032 C16.3375855,12.4330139 17.03125,10.5278015 17.03125,8.515625 C17.03125,3.80935668 13.2226562,0 8.515625,0 C3.80935668,0 0,3.80859375 0,8.515625 C0,13.2218933 3.80859375,17.03125 8.515625,17.03125 C10.5278015,17.03125 12.4330139,16.3375855 13.9595032,15.0642395 L18.6663818,19.7711182 C18.971405,20.0762939 19.466095,20.0762939 19.7711182,19.7711182 C20.0762939,19.466095 20.0762939,18.971405 19.7711182,18.6663818 Z M8.515625,15.46875 C4.68170164,15.46875 1.5625,12.3495484 1.5625,8.515625 C1.5625,4.68170164 4.68170164,1.5625 8.515625,1.5625 C12.3495484,1.5625 15.46875,4.68170164 15.46875,8.515625 C15.46875,12.3495484 12.3495484,15.46875 8.515625,15.46875 Z" id="Shape"></path>
        </g>
    </g>
</svg>
