<?xml version="1.0" encoding="UTF-8"?>
<svg width="16px" height="16px" viewBox="0 0 16 16" version="1.1" xmlns="http://www.w3.org/2000/svg" xmlns:xlink="http://www.w3.org/1999/xlink">
    <!-- Generator: sketchtool 60.1 (101010) - https://sketch.com -->
    <title>Search</title>
    <desc>Created with sketchtool.</desc>
    <g id="Asset-Artboard-Page" stroke="none" stroke-width="1" fill="none" fill-rule="evenodd">
        <g id="ui/Medium/Tracking-ui/Medium/search" fill="#777772">
            <path d="M15.8168945,14.9331055 L12.0513916,11.1676025 C13.0700684,9.94641113 13.625,8.42224122 13.625,6.8125 C13.625,3.04748534 10.578125,0 6.8125,0 C3.04748534,0 0,3.046875 0,6.8125 C0,10.5775147 3.046875,13.625 6.8125,13.625 C8.42224122,13.625 9.94641113,13.0700684 11.1676025,12.0513916 L14.9331055,15.8168945 C15.177124,16.0610352 15.572876,16.0610352 15.8168945,15.8168945 C16.0610352,15.572876 16.0610352,15.177124 15.8168945,14.9331055 Z M6.8125,12.375 C3.74536131,12.375 1.25,9.87963869 1.25,6.8125 C1.25,3.74536131 3.74536131,1.25 6.8125,1.25 C9.87963869,1.25 12.375,3.74536131 12.375,6.8125 C12.375,9.87963869 9.87963869,12.375 6.8125,12.375 Z" id="Shape"></path>
        </g>
    </g>
</svg>
