<?xml version="1.0" encoding="UTF-8"?>
<svg width="31px" height="16px" viewBox="0 0 31 16" version="1.1" xmlns="http://www.w3.org/2000/svg" xmlns:xlink="http://www.w3.org/1999/xlink">
    <!-- Generator: sketchtool 61.2 (101010) - https://sketch.com -->
    <title>A36EBB2F-7D9B-45CD-B247-F9563696B152</title>
    <desc>Created with sketchtool.</desc>
    <g id="Asset-Artboard-Page" stroke="none" stroke-width="1" fill="none" fill-rule="evenodd">
        <g id="➁/⨍-Form/Toggle/Toggle-normal-➁/⨍-Form/Toggle/Toggle-activated" transform="translate(0.890244, 0.000000)">
            <g id="➀/⧇-Shapes/Double-Shape">
                <g id="➀/⧇-Shapes/Square/Solid-Full-➀/⧇-Shapes/Round/Solid-Full" fill="#008040">
                    <rect id="Fill" transform="translate(15.000000, 8.000000) rotate(-360.000000) translate(-15.000000, -8.000000) " x="0" y="0" width="30" height="16" rx="8"></rect>
                </g>
                <g id="➀/⧇-Shapes/Square/Ghost-4-➀/⧇-Shapes/Round/Ghost-1" fill="#000000" opacity="0.1">
                    <path d="M22,1.83573224e-15 C26.418278,2.10627374e-15 30,3.581722 30,8 C30,12.418278 26.418278,16 22,16 L8,16 C3.581722,16 -5.41083001e-16,12.418278 0,8 C5.41083001e-16,3.581722 3.581722,-1.8638203e-15 8,-1.5932788e-15 L22,1.83573224e-15 Z M8,1 C4.13400675,1 1,4.13400675 1,8 C1,11.8659932 4.13400675,15 8,15 L8,15 L22,15 C25.8659932,15 29,11.8659932 29,8 C29,4.13400675 25.8659932,1 22,1 L22,1 Z" id="Outline"></path>
                </g>
            </g>
            <g id="➀/⧇-Shapes/Double-Shape" transform="translate(15.000000, 1.000000)">
                <g id="➀/⧇-Shapes/Square/Solid-Full-➀/⧇-Shapes/Round/Solid-Full" fill="#FFFFFF">
                    <rect id="Fill" transform="translate(7.000000, 7.000000) rotate(-360.000000) translate(-7.000000, -7.000000) " x="0" y="0" width="14" height="14" rx="7"></rect>
                </g>
                <g id="➀/⧇-Shapes/Square/Ghost-4-➀/⧇-Shapes/Round/Ghost-1" fill="#000000" opacity="0.2">
                    <path d="M7,-6.18513206e-17 C10.8659932,1.74872492e-16 14,3.13400675 14,7 C14,10.8659932 10.8659932,14 7,14 C3.13400675,14 -4.73447626e-16,10.8659932 0,7 C4.73447626e-16,3.13400675 3.13400675,-2.98575133e-16 7,-6.18513206e-17 Z M7,1 C3.6862915,1 1,3.6862915 1,7 C1,10.3137085 3.6862915,13 7,13 C10.3137085,13 13,10.3137085 13,7 C13,3.6862915 10.3137085,1 7,1 Z" id="Outline"></path>
                </g>
            </g>
        </g>
    </g>
</svg>