<?xml version="1.0" encoding="UTF-8"?>
<svg width="25px" height="24px" viewBox="0 0 25 24" version="1.1" xmlns="http://www.w3.org/2000/svg" xmlns:xlink="http://www.w3.org/1999/xlink">
    <!-- Generator: sketchtool 62 (101010) - https://sketch.com -->
    <title>C4D011AC-59DD-41E5-9254-946CFE4D77A6</title>
    <desc>Created with sketchtool.</desc>
    <g id="Asset-Artboard-Page" stroke="none" stroke-width="1" fill="none" fill-rule="evenodd">
        <g id="ui/Medium/user" transform="translate(0.097561, 0.000000)" fill="#4A4A47">
            <path d="M21.515625,17.71875 C21.7864012,17.9662511 21.82541,18.3715194 21.609375,18.65625 C19.4164259,21.7722774 15.822126,23.625 12,23.625 C8.17803922,23.625 4.58356405,21.7722604 2.390625,18.65625 C2.17458864,18.3715479 2.21359541,17.9662581 2.484375,17.71875 C3.79524073,16.4510122 5.5177317,15.7364266 7.359375,15.703125 L7.546875,15.703125 L7.546875,13.265625 L7.5,13.21875 C6.59748068,12.1793728 6.11532375,10.8646102 6.09375,9.46875 L6.09375,6.1875 C6.11532375,2.99184762 8.75533664,0.375 12,0.375 C15.2446673,0.375 17.8846802,2.99184762 17.90625,6.1875 L17.90625,9.46875 C17.8846802,10.8646102 17.4025232,12.1793728 16.5,13.21875 L16.453125,13.265625 L16.453125,15.703125 L16.640625,15.703125 C18.4822722,15.7364266 20.2047632,16.4510122 21.515625,17.71875 Z M7.59375072,6.234375 L7.59375072,9.515625 C7.59375072,10.6400023 8.0252421,11.7076413 8.81250072,12.515625 C9.64823668,13.3938797 10.7825725,13.875 12.0000007,13.875 C13.2174904,13.875 14.3518154,13.393835 15.1875007,12.515625 C15.974804,11.7078005 16.4062507,10.640198 16.4062507,9.515625 L16.4062507,6.234375 C16.4062507,3.83008712 14.4298512,1.875 12.0000007,1.875 C9.5702708,1.875 7.59375072,3.83014812 7.59375072,6.234375 Z M12.0000009,22.125 C15.0116156,22.125 17.8952801,20.7885472 19.8281259,18.46875 L19.9687509,18.328125 L19.8281259,18.234375 C18.8282367,17.5298002 17.6606317,17.1590006 16.4531259,17.15625 L15.7031259,17.15625 C15.2900347,17.1590006 14.9567089,16.8294606 14.9531259,16.40625 L14.9531259,14.53125 L14.6718759,14.671875 C13.8556724,15.0975931 12.9331545,15.3194754 12.0000009,15.328125 C11.0200935,15.3194754 10.0974017,15.097562 9.28125089,14.671875 L9.00000089,14.53125 L9.00000089,16.40625 C8.99642556,16.8294606 8.66309978,17.1590006 8.25000089,17.15625 L7.50000089,17.15625 C6.29252711,17.1590006 5.1249173,17.5297864 4.12500089,18.234375 L3.98437589,18.328125 L4.12500089,18.46875 C6.05808444,20.7885996 8.94158618,22.125 12.0000009,22.125 Z" id="Shape"></path>
        </g>
    </g>
</svg>