<?xml version="1.0" encoding="UTF-8"?>
<svg width="512px" height="512px" viewBox="0 0 512 512" version="1.1" xmlns="http://www.w3.org/2000/svg" xmlns:xlink="http://www.w3.org/1999/xlink">
    <!-- Generator: Sketch 64 (93537) - https://sketch.com -->
    <title>Login</title>
    <desc>Created with Sketch.</desc>
    <g id="ui/Medium/user" stroke="none" stroke-width="1" fill="none" fill-rule="evenodd">
        <path d="M256,4 C291.652058,4 323.987335,18.3552057 347.489828,41.484644 C371.07778,64.6981831 385.765865,96.7466362 386,131.986607 L386,131.986607 L386,202.030678 C385.531584,232.788888 374.889957,261.751318 355,284.645926 L355,284.645926 L355,331 C395.362372,331.720198 433.078753,347.366913 461.781158,375.123338 C465.374186,378.444933 467.424866,382.806336 467.872985,387.287528 C468.32939,391.851579 467.125378,396.542227 464.184069,400.425738 C416.64662,467.887096 338.791327,508 256,508 C173.161691,508 95.2580677,467.837719 47.7284873,400.304986 C44.8523125,396.455068 43.6748214,391.809361 44.1269809,387.287766 C44.5784923,382.772652 46.6569013,378.379035 50.303382,375.043382 C78.9950031,347.336364 116.677097,331.719495 156.964062,331 L156.964062,331 L156.998769,284.644509 C137.10969,261.750125 126.468492,232.788258 126,202.030684 L126,202.030684 L126,131.986605 C126.234178,96.7466346 140.922284,64.6981823 164.510234,41.4846439 C188.012729,18.3552052 220.347985,4 256,4 Z M196.000018,316.472136 L196.000018,350.016026 C195.95718,355.637342 193.711559,360.629225 190.124251,364.216533 C186.506299,367.834485 181.51607,370.033041 175.98742,370 L160.000018,370 C135.440957,370.055955 111.673221,377.49144 91.2278593,391.625005 C131.711709,440.095495 192.032687,468 256.000018,468 C318.983976,468 379.297844,440.08906 419.772188,391.625009 C399.327367,377.491711 375.55959,370.055955 350.990906,369.99999 L335.012608,370 C329.484055,370.033039 324.493865,367.834491 320.875906,364.216532 C317.288609,360.629235 315.042947,355.637363 315.000018,350.01606 L314.819237,316.562526 C296.860661,325.92295 276.567105,330.809531 256.037093,330.999828 L256.003261,331.000138 L255.964711,330.999844 C234.415719,330.809632 214.129224,325.917586 196.180804,316.562529 L196.000018,316.472136 Z M256.000018,44 C231.179934,44 208.673757,53.984766 192.373607,70.1115099 C176.090219,86.2216709 166.000018,108.463656 166.000018,133 L166.000018,203 C166.000018,225.94023 174.802629,247.723384 190.897718,264.242586 C207.966999,282.18028 231.136844,292 256.000018,292 C280.86444,292 304.034061,282.179377 321.13544,264.208191 C337.198578,247.726366 346.000018,225.944033 346.000018,203 L346.000018,133 C346.000018,108.462883 335.910347,86.220753 319.627083,70.1107155 C303.327258,53.9842926 280.821181,44 256.000018,44 Z" id="Shape" fill="#004F9F"></path>
    </g>
</svg>
