<?xml version="1.0" encoding="UTF-8"?>
<svg width="18px" height="21px" viewBox="0 0 18 21" version="1.1" xmlns="http://www.w3.org/2000/svg" xmlns:xlink="http://www.w3.org/1999/xlink">
    <!-- Generator: sketchtool 63.1 (101010) - https://sketch.com -->
    <title>B65C4709-B89E-4348-972F-D2CF399EFCAE</title>
    <desc>Created with sketchtool.</desc>
    <g id="Main" stroke="none" stroke-width="1" fill="none" fill-rule="evenodd">
        <g id="00-Référence-socomec" transform="translate(-873.000000, -596.000000)">
            <g id="Header">
                <g id="Right" transform="translate(873.000000, 140.000000)">
                    <g id="CTAs" transform="translate(0.000000, 436.000000)">
                        <g id="➁-/☞-Buttons/h50/Center-Icon-Left" transform="translate(0.000000, 20.000000)">
                            <g id="center" transform="translate(0.000000, 0.100000)">
                                <g id="ui/Medium/bag-purchase">
                                    <path d="M9,0.0390625 C4.26109375,0.0390625 0.40625,3.79855469 0.40625,8.47074219 C0.40625,11.1516016 1.69613281,13.6519531 3.87808594,15.2416016 L3.87808594,19.2578125 C3.87808594,19.5678906 4.06144531,19.8485937 4.34535156,19.9731641 C4.62757813,20.0971094 4.95878906,20.0438281 5.18820313,19.8328125 L8.39695313,16.8814453 C8.59890625,16.8953125 8.80066406,16.9023437 9,16.9023437 C13.7389063,16.9023437 17.59375,13.1428516 17.59375,8.47066406 C17.59375,3.79414062 13.7347656,0.0390625 9,0.0390625 Z M9,15.3398828 C8.73878906,15.3398828 8.47203125,15.3251953 8.20710937,15.2962109 C7.98300781,15.2714453 7.75921875,15.3451562 7.59324219,15.4978125 L5.44058594,17.4777734 L5.44058594,14.8322266 C5.44058594,14.5689062 5.30792969,14.3232812 5.08769531,14.1788672 C3.1346875,12.8984375 1.96875,10.7645703 1.96875,8.47074219 C1.96875,4.68304687 5.12292969,1.6015625 9,1.6015625 C12.8770703,1.6015625 16.03125,4.68304687 16.03125,8.47074219 C16.03125,12.2583594 12.8770312,15.3398828 9,15.3398828 Z" id="Combined-Shape" fill="#004F9F"></path>
                                    <path d="M8.609375,11.4515625 C9.19186282,11.4515625 9.6640625,11.9237622 9.6640625,12.50625 C9.6640625,13.0887378 9.19186282,13.5609375 8.609375,13.5609375 C8.02688718,13.5609375 7.5546875,13.0887378 7.5546875,12.50625 C7.5546875,11.9237622 8.02688718,11.4515625 8.609375,11.4515625 Z M9.390625,3.90144531 C10.8983594,3.90144531 12.125,5.12808594 12.125,6.63582031 C12.125,8.14359375 10.8983594,9.37019531 9.390625,9.37019531 L9.390625,9.37019531 L9.390625,9.71367188 C9.390625,10.1451563 9.04085938,10.4949219 8.609375,10.4949219 C8.17789062,10.4949219 7.828125,10.1451563 7.828125,9.71367188 L7.828125,9.71367188 L7.828125,8.58894531 C7.828125,8.15746094 8.17789062,7.80769531 8.609375,7.80769531 L8.609375,7.80769531 L9.390625,7.80769531 C10.0367969,7.80769531 10.5625,7.28199219 10.5625,6.63582031 C10.5625,5.98964844 10.0367969,5.46394531 9.390625,5.46394531 L9.390625,5.46394531 L6.65625,5.46394531 C6.22476562,5.46394531 5.875,5.11417969 5.875,4.68269531 C5.875,4.25121094 6.22476562,3.90144531 6.65625,3.90144531 L6.65625,3.90144531 Z" id="?" fill="#FFCC00"></path>
                                </g>
                            </g>
                        </g>
                    </g>
                </g>
            </g>
        </g>
    </g>
</svg>