<?xml version="1.0" encoding="UTF-8"?>
<svg width="20px" height="20px" viewBox="0 0 20 20" version="1.1" xmlns="http://www.w3.org/2000/svg" xmlns:xlink="http://www.w3.org/1999/xlink">
    <!-- Generator: sketchtool 63.1 (101010) - https://sketch.com -->
    <title>B2CE6693-7892-44A9-9D9A-861AECABCAFB</title>
    <desc>Created with sketchtool.</desc>
    <g id="Main" stroke="none" stroke-width="1" fill="none" fill-rule="evenodd">
        <g id="00-Référence-socomec" transform="translate(-1399.000000, -596.000000)" fill="#004F9F">
            <g id="Header">
                <g id="Right" transform="translate(873.000000, 140.000000)">
                    <g id="CTAs" transform="translate(0.000000, 436.000000)">
                        <g id="➁-/☞-Buttons/BTN-master-padding:20" transform="translate(506.000000, 0.000000)">
                            <g id="➁-/☞-Buttons/h50/Center-Icon-Left" transform="translate(20.000000, 20.000000)">
                                <g id="center">
                                    <g id="ui/Medium/bag-purchase">
                                        <path d="M19.2182922,8.52951051 L16.61026,8.52951051 L11.7526245,2.81784059 C11.8815613,2.55722047 11.9543457,2.26425172 11.9543457,1.9543457 C11.9543457,0.87677 11.0775757,0 9.99999225,0 C8.9224243,0 8.04580687,0.87677 8.04580687,1.9543457 C8.04580687,2.26425172 8.11859133,2.55722047 8.24737547,2.81784059 L3.38989258,8.52951051 L0.781707773,8.52951051 C0.256347656,8.52951051 -0.120697031,9.03930664 0.0357055469,9.5426941 L3.11553953,19.4506836 C3.21716309,19.7773743 3.51943969,20 3.86154176,20 L16.1384582,20 C16.4805603,20 16.7829895,19.7773743 16.8844605,19.4506836 L19.9642945,9.5426941 C20.1202393,9.04098512 19.7454834,8.52951051 19.2182922,8.52951051 Z M10,1.5625 C10.2160645,1.5625 10.3918457,1.73828125 10.3918457,1.9543457 C10.3918457,2.17041016 10.2160645,2.34619141 10,2.34619141 C9.78393555,2.34619141 9.6081543,2.17041016 9.6081543,1.9543457 C9.6081543,1.73828125 9.78393555,1.5625 10,1.5625 L10,1.5625 Z M9.4404602,3.82675172 C9.61791992,3.8798523 9.80560305,3.90869141 10,3.90869141 C10.194397,3.90869141 10.3822327,3.87969969 10.5595398,3.82675172 L14.5591736,8.52951051 L5.44097898,8.52951051 L9.4404602,3.82675172 Z M15.5632019,18.4375 L4.43679809,18.4375 L1.84265137,10.0920105 L18.1575012,10.0920105 L15.5632019,18.4375 Z M7.68692016,16.7503357 C7.81509398,17.162323 7.58499145,17.6000977 7.17300414,17.7284241 C6.76162719,17.8564453 6.32339477,17.6272583 6.19491578,17.214508 L4.50073242,11.7701721 C4.37240602,11.3581848 4.60250855,10.9202576 5.01449586,10.7920837 C5.42663574,10.6637573 5.86441039,10.8938598 5.99258422,11.3058472 L7.68692016,16.7503357 Z M15.4994202,11.7701721 L13.8050842,17.214508 C13.6769104,17.626648 13.2389832,17.8565979 12.8269959,17.7284241 C12.4150086,17.6002502 12.184906,17.162323 12.3132324,16.7503357 L14.0074158,11.3058472 C14.1355896,10.8938598 14.5735168,10.6637573 14.9855041,10.7920837 C15.3974914,10.9202576 15.627594,11.3581848 15.4994202,11.7701721 Z M10.78125,11.5380859 L10.78125,16.9824219 C10.78125,17.4139404 10.4315186,17.7636719 10,17.7636719 C9.56863402,17.7636719 9.21875,17.4139404 9.21875,16.9824219 L9.21875,11.5380859 C9.21875,11.1065674 9.56863402,10.7568359 10,10.7568359 C10.4315186,10.7568359 10.78125,11.1065674 10.78125,11.5380859 Z" id="Shape"></path>
                                    </g>
                                </g>
                            </g>
                        </g>
                    </g>
                </g>
            </g>
        </g>
    </g>
</svg>