<?xml version="1.0" encoding="UTF-8"?>
<svg width="21px" height="20px" viewBox="0 0 21 20" version="1.1" xmlns="http://www.w3.org/2000/svg" xmlns:xlink="http://www.w3.org/1999/xlink">
    <!-- Generator: sketchtool 61.2 (101010) - https://sketch.com -->
    <title>215B6712-04E9-4E3F-9474-972C53E8B6D0</title>
    <desc>Created with sketchtool.</desc>
    <g id="Asset-Artboard-Page" stroke="none" stroke-width="1" fill="none" fill-rule="evenodd">
        <g id="ui/Medium/bag-purchase-ui/social/facebook" transform="translate(0.125950, 0.000000)" fill="#004F9F">
            <path d="M12.7734375,18.4375 L17.65625,18.4375 C18.0870056,18.4375 18.4375,18.0870056 18.4375,17.65625 L18.4375,2.34375 C18.4375,1.91299438 18.0870056,1.5625 17.65625,1.5625 L2.34375,1.5625 C1.91299438,1.5625 1.5625,1.91299438 1.5625,2.34375 L1.5625,17.65625 C1.5625,18.0870056 1.91299438,18.4375 2.34375,18.4375 L10.4296875,18.4375 L10.4296875,12.3046875 L8.8671875,12.3046875 L8.8671875,10.3515625 L10.4296875,10.3515625 L10.4296875,8.3984375 C10.4296875,7.10390625 11.4789063,6.0546875 12.7734375,6.0546875 L14.3359375,6.0546875 L14.3359375,8.0078125 L13.5546875,8.0078125 C13.1234375,8.0078125 12.7734375,8.3578125 12.7734375,8.7890625 L12.7734375,10.3515625 L15.1171875,10.3515625 L14.3359375,12.3046875 L12.7734375,12.3046875 L12.7734375,18.4375 Z M17.65625,20 L2.34375,20 C1.05133055,20 0,18.9486695 0,17.65625 L0,2.34375 C0,1.05133055 1.05133055,0 2.34375,0 L17.65625,0 C18.9486695,0 20,1.05133055 20,2.34375 L20,17.65625 C20,18.9486695 18.9486695,20 17.65625,20 Z" id="Shape"></path>
        </g>
    </g>
</svg>