<?xml version="1.0" encoding="UTF-8"?>
<svg width="16px" height="20px" viewBox="0 0 16 20" version="1.1" xmlns="http://www.w3.org/2000/svg" xmlns:xlink="http://www.w3.org/1999/xlink">
    <!-- Generator: sketchtool 63.1 (101010) - https://sketch.com -->
    <title>7131D15D-513F-4C03-8B81-44CA9208A91F</title>
    <desc>Created with sketchtool.</desc>
    <g id="Main" stroke="none" stroke-width="1" fill="none" fill-rule="evenodd">
        <g id="00-Référence-socomec" transform="translate(-1205.000000, -596.000000)">
            <g id="Header">
                <g id="Right" transform="translate(873.000000, 140.000000)">
                    <g id="CTAs" transform="translate(0.000000, 436.000000)">
                        <g id="➁-/☞-Buttons/BTN-master-padding:20" transform="translate(310.000000, 0.000000)">
                            <g id="➁-/☞-Buttons/h50/Center-Icon-Left" transform="translate(22.000000, 20.000000)">
                                <g id="center">
                                    <g id="ui/Medium/bag-purchase">
                                        <path d="M10.65625,19.6875 L3.8761833,19.6875 C1.97886896,19.6845166 0.440330559,18.1473123 0.435701182,16.2500013 L0.424846698,3.74999871 C0.420275594,1.87050793 1.92731529,0.342010374 3.79954796,0.310030311 L3.85639288,0.309520441 C3.85738692,0.309520441 3.85838096,0.309520441 3.859375,0.3125 L12.2019417,0.3125 C14.099256,0.315483411 15.6377944,1.85268767 15.6424238,3.74999871 L15.6519275,14.6875019 C15.6585764,17.4213066 13.4665187,19.6445758 10.7432711,19.6910923 L10.6605876,19.6918339 C10.6591417,19.6918339 10.6576959,19.6918339 10.65625,19.6875 Z" id="Seleted"></path>
                                        <path d="M7.0234375,19.21875 C7.02099119,19.6502344 6.67112991,20 6.2421875,20 L3.234375,20 C1.51163338,20 0.109375,18.598125 0.109375,16.875 L0.109375,3.125 C0.109375,1.401875 1.51163338,0 3.234375,0 L12.84375,0 C14.5664916,0 15.96875,1.401875 15.96875,3.125 L15.96875,10.6640625 C15.96875,11.0955469 15.6188887,11.4453125 15.1875,11.4453125 C14.755684,11.4453125 14.4058227,11.0955469 14.40625,10.6640625 L14.40625,3.125 C14.4058227,2.2634375 13.7046935,1.5625 12.84375,1.5625 L3.234375,1.5625 C2.37343149,1.5625 1.6723023,2.2634375 1.671875,3.125 L1.671875,16.875 C1.6723023,17.7365625 2.37343149,18.4375 3.234375,18.4375 L6.2421875,18.4375 C6.67112991,18.4375 7.02099119,18.7872656 7.0234375,19.21875 Z" id="fiche" fill="#FFFFFF"></path>
                                        <path d="M15.9476172,15.9203906 C15.9476172,17.3026953 14.7889063,18.1614844 13.8578516,18.8515234 C13.4482422,19.1551172 13.0612891,19.4419141 12.84375,19.7104688 C12.6954297,19.8935938 12.4723438,20 12.2366797,20 C12.0010156,20 11.7779297,19.8935938 11.6296094,19.7104688 C11.4120703,19.4419141 11.0251172,19.1551172 10.6155078,18.8515234 C9.68445313,18.1614844 8.52574219,17.3026953 8.52574219,15.9203906 C8.52574219,15.2614453 8.75875,14.6640625 9.181875,14.2382422 C9.59484375,13.8226172 10.1595313,13.59375 10.7718359,13.59375 C11.4030469,13.59375 11.8844141,13.7978125 12.2366797,14.0942578 C12.5889063,13.7978125 13.0703125,13.59375 13.7015234,13.59375 C14.3138281,13.59375 14.8785156,13.8226172 15.2914844,14.2382422 C15.7146094,14.6640234 15.9476172,15.2614063 15.9476172,15.9203906 Z" id="Path" fill="#FFCC00"></path>
                                    </g>
                                </g>
                            </g>
                        </g>
                    </g>
                </g>
            </g>
        </g>
    </g>
</svg>