<?xml version="1.0" encoding="UTF-8"?>
<svg width="50px" height="50px" viewBox="0 0 50 50" version="1.1" xmlns="http://www.w3.org/2000/svg" xmlns:xlink="http://www.w3.org/1999/xlink">
    <!-- Generator: sketchtool 60.1 (101010) - https://sketch.com -->
    <title>F3AF315C-0799-42F2-AF18-B1B77756CAE4</title>
    <desc>Created with sketchtool.</desc>
    <g id="Asset-Artboard-Page" stroke="none" stroke-width="1" fill="none" fill-rule="evenodd">
        <g id="ui/Medium/chevron-right-circle-ui/Thin/Help-Support" fill="#004F9F">
            <path d="M9.99495772,7.83205171 C14.1100172,3.71627025 19.7966496,1.17263794 26.0823139,1.17263794 C30.8400121,1.17263794 35.254515,2.62992712 38.9040822,5.12322398 C40.0781612,5.92503864 41.1725688,6.83397065 42.1737997,7.83598515 C46.283699,11.9491009 48.8234914,17.6298691 48.828209,23.9040372 C48.828209,30.2088935 46.2851067,35.8967415 42.1699193,40.0125853 C38.0547605,44.1284004 32.368011,46.6720574 26.0823139,46.6720574 C21.7434495,46.6720574 17.5402189,45.4506574 13.8972767,43.1339906 L2.29931268,48.7432665 C2.14286053,48.8189461 1.98468934,48.8433434 1.83745581,48.8183237 C1.67272454,48.7903306 1.52519314,48.7057887 1.41021744,48.5908467 C1.29479885,48.4754618 1.21001625,48.3272933 1.18180397,48.1620477 C1.15666836,48.0148229 1.18067626,47.8566894 1.25615538,47.7005628 L6.86612582,36.0972297 C4.55543842,32.4563178 3.33680039,28.2567535 3.33680039,23.9223477 C3.33680039,17.6351258 5.88005878,11.9476726 9.99495772,7.83205171 Z M33.4715055,31.2834324 C35.3610132,29.3940025 36.5307694,26.7852363 36.5307694,23.9086151 C36.5307694,21.0319939 35.3610132,18.4232277 33.4715055,16.5337978 C31.5819772,14.6443474 28.9730824,13.4746552 26.096428,13.4746552 C23.2196108,13.4746552 20.610766,14.6443172 18.7213014,16.5337039 C16.8317884,18.4231391 15.6620866,21.0319417 15.6620866,23.9086151 C15.6620866,26.7852363 16.8318429,29.3940025 18.7213505,31.2834324 C20.6108788,33.1728828 23.2197736,34.3425751 26.096428,34.3425751 C28.9730824,34.3425751 31.5819772,33.1728829 33.4715055,31.2834324 Z M26.8772965,45.0946257 C32.4075466,44.8891484 37.4031072,42.5544484 41.0650047,38.8866369 C44.7260026,35.2197264 47.0533057,30.2210461 47.251763,24.6894836 L38.0668606,24.6894836 C37.8738339,27.686598 36.5739925,30.3865832 34.5743807,32.3861949 C32.5746863,34.3858894 29.8744978,35.6858239 26.8772965,35.8791303 L26.8772965,45.0946257 Z M4.91299779,24.6894836 C5.05310617,28.5934363 6.2546383,32.3540699 8.41193966,35.6097659 C8.56401403,35.8394013 8.58404574,36.1326264 8.46395904,36.3808869 L3.63937113,46.3604316 L13.6134506,41.5361377 C13.8618783,41.4159652 14.1552461,41.4359344 14.3850309,41.5885652 C17.6435945,43.7509552 21.4074823,44.9558296 25.3151784,45.0958312 L25.3151784,35.878671 C22.3180142,35.6856121 19.6179747,34.3858369 17.6184001,32.3862622 C15.6188254,30.3866875 14.3190502,27.6866479 14.1259912,24.6894836 L4.91299779,24.6894836 Z M25.3155606,2.74908748 C19.7847757,2.94740815 14.7869916,5.27517322 11.1207422,8.93698821 C7.45371003,12.599585 5.11947762,17.596127 4.91385031,23.1273657 L14.1259913,23.1273657 C14.3190032,20.1304362 15.6188674,17.4305281 17.618509,15.4309554 C19.6182019,13.4313314 22.3183764,12.131405 25.3155606,11.9381003 L25.3155606,2.74908748 Z M47.2507497,23.1273646 C47.0454572,17.601596 44.7156405,12.6093582 41.0547651,8.94762713 C37.393789,5.28579539 32.4023709,2.95522603 26.8772965,2.74961833 L26.8772965,11.938177 C29.8744823,12.131239 32.5746586,13.431048 34.5743483,15.4306686 C36.5739805,17.4302318 37.8738331,20.1302364 38.066861,23.1273646 L47.2507497,23.1273646 Z" id="Shape"></path>
        </g>
    </g>
</svg>