<?xml version="1.0" encoding="UTF-8"?>
<svg width="71px" height="70px" viewBox="0 0 71 70" version="1.1" xmlns="http://www.w3.org/2000/svg" xmlns:xlink="http://www.w3.org/1999/xlink">
    <!-- Generator: sketchtool 60.1 (101010) - https://sketch.com -->
    <title>8C94274E-AE4B-4750-9BAA-B2B333AB8D1A</title>
    <desc>Created with sketchtool.</desc>
    <g id="Asset-Artboard-Page" stroke="none" stroke-width="1" fill="none" fill-rule="evenodd">
        <g id="certifications/iec-copy-certifications/iec" transform="translate(0.502435, 0.000000)" fill="#777772">
            <path d="M63.756758,52.6576575 C63.7561915,50.6534003 62.1047433,49.0014493 60.0991004,49 C58.0363727,48.9986154 56.3773106,50.6503775 56.3783798,52.6576575 C56.379513,54.693728 58.0529218,56.3726322 60.0360374,56.3783782 C62.0802028,56.3842195 63.757387,54.7057561 63.756758,52.6576575 L63.756758,52.6576575 Z M7.69369356,53.3513497 L54.8018034,53.3513497 L54.8018034,52.0900885 L7.69369356,52.0900885 L7.69369356,53.3513497 Z M56.1891871,56.3153161 C55.9452149,55.9662533 55.7076115,55.6730356 55.4954935,55.3693702 C55.4003918,55.127828 55.2627988,55.0539301 54.990989,55.0540549 C39.3629202,55.0601768 23.7160943,55.0595521 8.07207192,55.0540549 L7.69369356,55.0540549 L7.69369356,56.3153161 L56.1891871,56.3153161 Z M56.1891871,49.0630633 L7.69369356,49.0630633 L7.69369356,50.3243245 L8.19819804,50.3243245 C23.7506177,50.3211687 39.3185675,50.3211687 54.8648629,50.3243245 C54.991604,50.3210439 55.098646,50.3315894 55.1801782,50.3243245 C55.2766497,50.3025111 55.3747978,50.2733704 55.4324304,50.1981984 C55.6737205,49.8467428 55.9206676,49.4664158 56.1891871,49.0630633 L56.1891871,49.0630633 Z M7.69369356,42.8198207 L13.4324325,42.8198207 L13.4324325,16.9009008 L7.69369356,16.9009008 L7.69369356,42.8198207 Z M62.8738723,20.5585585 C62.7164037,20.3523515 62.5794391,20.1521045 62.4324309,19.9909909 C59.2324257,16.4662212 55.2428974,15.1006023 50.6396385,15.9549548 C46.2522981,16.7494836 43.0131389,19.3023804 40.9909902,23.2702703 C39.4972719,26.1568002 39.1905066,29.2370815 39.729729,32.4144147 C40.1349246,34.9262555 41.177851,37.1485428 42.9459451,38.9729735 C45.7018507,41.7583274 49.065219,43.1892223 52.9729718,43.3243249 C55.6330792,43.4053149 58.0648482,42.6456136 60.2252238,41.0540546 C61.6857276,39.9239082 62.8473062,38.5397923 63.6936921,36.8918923 C63.7418385,36.8002569 63.7833258,36.6135197 63.7567552,36.576577 C63.3286715,36.1930767 62.9002229,35.839993 62.4324309,35.4414418 C62.3778125,35.5810355 62.3181391,35.6643665 62.2432417,35.7567571 C61.1903439,37.2777059 59.9406129,38.6309514 58.396395,39.6666672 C57.1633698,40.5534995 55.8215713,41.1615004 54.2972961,41.3063069 C52.2232983,41.5451388 50.393441,40.8691474 48.8108098,39.540541 C46.4131321,37.5715741 45.3839716,34.8959533 45.0900892,31.9099102 C44.9418834,30.67511 44.9675209,29.4161801 44.9639631,28.1891894 C45.0304147,26.5675843 45.2997974,24.9955317 45.8468459,23.4594595 C46.4020183,21.7448005 47.2954772,20.2096155 48.8108098,19.1711711 C51.0629826,17.6169471 53.5273352,17.4453609 56.0630618,18.1621621 C58.1543267,18.739454 59.8213293,19.9985102 61.1711697,21.6306306 C61.27837,21.7439167 61.3562927,21.8363384 61.4234219,21.9459459 C61.9398289,21.4813608 62.4031974,21.0423578 62.8738723,20.5585585 L62.8738723,20.5585585 Z M38.2792785,16.3333331 C38.1873863,16.293606 38.105861,16.2764633 38.0270263,16.27027 C33.5096913,16.2753289 28.9950468,16.2862951 24.4684681,16.27027 C22.7592147,16.2641736 20.9160864,17.9176201 20.9369367,19.8648647 C21.0033582,26.0547705 20.9607958,32.230915 20.9369367,38.4054059 C20.9643953,38.6671614 20.9794879,38.9323683 20.9999998,39.1621627 C21.3463833,40.8086063 22.9381788,42.7882674 25.2882879,42.7567574 C29.597614,42.6988357 33.8813228,42.7402428 38.1531524,42.7567574 C38.2958762,42.7392344 38.4272892,42.7273228 38.5945938,42.6936944 C38.5873086,42.0878136 38.5719634,41.4904048 38.5945938,40.8648655 C38.6048008,40.5902896 38.509067,40.5050175 38.2162155,40.4864871 C35.1733503,40.5168661 32.1425166,40.5146602 29.1351347,40.4864871 C28.7979589,40.509051 28.4806986,40.4893244 28.1891887,40.423424 C27.0860542,40.2648943 26.575116,39.660931 26.5495491,38.5945951 C26.5741688,36.3716847 26.5702536,34.1660808 26.5495491,31.9729733 C26.5799785,31.4896844 26.5922294,31.0138497 26.6756753,30.5225228 C26.749344,29.9647446 26.8961653,29.8693886 27.4954951,29.8918921 C30.0521602,29.8690735 32.6305316,29.8644097 35.1891885,29.8918921 C35.514986,29.8768886 35.6499353,29.8168262 35.63063,29.4504507 C35.5945537,29.0829065 35.6179188,28.6820709 35.63063,28.2522524 C35.6169084,27.8517238 35.6165296,27.8511565 35.1891885,27.873874 C32.588285,27.8506523 29.9889481,27.8528582 27.3693689,27.873874 C26.7516173,27.8474381 26.5387422,27.6212433 26.5495491,26.9909911 C26.5545926,26.5159835 26.5710113,26.0436782 26.5495491,25.5405406 C26.5839569,23.7335168 26.5787155,21.8955346 26.6126122,20.0540539 C26.6145841,19.2975406 26.9968247,18.9082385 27.7477473,18.7927926 C27.9022543,18.7847106 28.0617685,18.788303 28.1891887,18.7927926 C31.4501515,18.7873576 34.6809779,18.7876097 37.9009002,18.7927926 L38.2792785,18.7927926 L38.2792785,16.3333331 Z M70,0 L70,70 L0,70 C0.0112279469,69.8704866 0,69.7476602 0,69.6216216 C0,46.5572563 0,23.4896789 0,0.441441441 C0,0.000757019327 0.00107330275,0 0.441441441,0 C23.486747,0 46.5392399,0 69.6216216,0 L70,0 Z" id="ice"></path>
        </g>
    </g>
</svg>