<?xml version="1.0" encoding="UTF-8"?>
<svg width="19px" height="21px" viewBox="0 0 19 21" version="1.1" xmlns="http://www.w3.org/2000/svg" xmlns:xlink="http://www.w3.org/1999/xlink">
    <!-- Generator: sketchtool 63.1 (101010) - https://sketch.com -->
    <title>A217371B-A60F-454E-ABA4-7119F3975E8A</title>
    <desc>Created with sketchtool.</desc>
    <g id="Main" stroke="none" stroke-width="1" fill="none" fill-rule="evenodd">
        <g id="00-Référence-socomec" transform="translate(-1028.000000, -596.000000)">
            <g id="Header">
                <g id="Right" transform="translate(873.000000, 140.000000)">
                    <g id="CTAs" transform="translate(0.000000, 436.000000)">
                        <g id="➁-/☞-Buttons/h50/Center-Icon-Left" transform="translate(154.000000, 20.000000)">
                            <g id="center" transform="translate(0.500000, 0.100000)">
                                <g id="ui/Medium/bag-purchase">
                                    <path d="M19.0539384,17.172966 L17.1525407,13.3701706 C16.8195939,12.7041244 16.1500382,12.2903061 15.4054093,12.2903061 L14.9427628,12.2903061 L15.0364518,12.1967697 C17.8228593,9.41020966 17.8228593,4.87636567 15.0364518,2.0898056 C12.2498917,-0.696601865 7.71604773,-0.696601865 4.92948765,2.0898056 C2.14308019,4.87636567 2.14308019,9.41020966 4.92948765,12.1967697 L5.02317663,12.2903061 L4.56053015,12.2903061 C3.81574867,12.2903061 3.14634558,12.7041244 2.81324621,13.3701706 L0.912001088,17.172966 C0.261824096,18.4731674 1.20863195,19.9999618 2.65913246,19.9999618 L17.306807,19.9999618 C18.7603593,19.9999618 19.7027421,18.4704208 19.0539384,17.172966 Z M6.03452917,3.19484708 C8.2116532,1.0177231 11.7539811,1.0177231 13.9312577,3.19484708 C16.1083817,5.37197114 16.1083817,8.91460419 13.9312577,11.0917282 C13.7023759,11.32061 10.2125382,14.8104477 9.98289343,15.0400925 C9.75324867,14.8104477 6.26341101,11.32061 6.03452917,11.0917282 C3.85725257,8.91460419 3.85725257,5.37197114 6.03452917,3.19484708 Z M17.306807,18.4371567 L2.65913246,18.4371567 C2.36845249,18.4371567 2.17970128,18.1315231 2.30970617,17.8718185 L4.21095128,14.0691757 C4.27763218,13.9358139 4.41145179,13.8531113 4.56037757,13.8531113 L6.58582921,13.8531113 L9.43037269,16.6976547 C9.73554847,17.0028305 10.2302384,17.0028305 10.5354142,16.6976547 L13.3799577,13.8531113 L15.4054093,13.8531113 C15.5543351,13.8531113 15.6881547,13.9358139 15.7548356,14.0691757 L17.6562333,17.8718185 C17.7860856,18.1316757 17.5971818,18.4371567 17.306807,18.4371567 Z" id="Shape" fill="#004F9F"></path>
                                    <path d="M9.98289343,3.83846282 C11.6848587,3.83846282 13.0692887,5.22304536 13.0692887,6.9248581 C13.0692887,8.62682341 11.6848587,10.0114059 9.98289343,10.0114059 C8.2810807,10.0114059 6.89649816,8.62682341 6.89649816,6.9248581 C6.89649816,5.22304536 8.2810807,3.83846282 9.98289343,3.83846282 Z M9.98289343,5.4011154 C9.14274453,5.4011154 8.45915078,6.08470915 8.45915078,6.9248581 C8.45915078,7.765007 9.14274453,8.44860075 9.98289343,8.44860075 C10.8230423,8.44860075 11.5066361,7.765007 11.5066361,6.9248581 C11.5066361,6.08470915 10.8230423,5.4011154 9.98289343,5.4011154 Z" id="Ring" fill="#FFCC00"></path>
                                </g>
                            </g>
                        </g>
                    </g>
                </g>
            </g>
        </g>
    </g>
</svg>