<?xml version="1.0" encoding="UTF-8"?>
<svg width="40px" height="40px" viewBox="0 0 40 40" version="1.1" xmlns="http://www.w3.org/2000/svg" xmlns:xlink="http://www.w3.org/1999/xlink">
    <!-- Generator: sketchtool 61.2 (101010) - https://sketch.com -->
    <title>A32375EF-7919-4DFA-8E47-C4C0B68B6302</title>
    <desc>Created with sketchtool.</desc>
    <g id="Asset-Artboard-Page" stroke="none" stroke-width="1" fill-rule="evenodd">
        <g id="ui/Medium/chevron-left-ui/Thin/metering-monitoring">
            <path d="M32.9165649,23.8259888 C32.9165649,23.9985962 32.8466447,24.1548616 32.7335412,24.2679651 C32.6204378,24.3810685 32.4641724,24.4509888 32.2915649,24.4509888 L7.70843506,24.4509888 C7.53582764,24.4509888 7.3795622,24.3810685 7.26645875,24.2679651 C7.1533553,24.1548616 7.08343506,23.9985962 7.08343506,23.8259888 C7.08343506,23.6534212 7.15341873,23.4971669 7.26653377,23.3840519 C7.37962333,23.2709623 7.5358488,23.2009888 7.70843506,23.2009888 L32.2918702,23.2009888 C32.4643334,23.2009888 32.6204503,23.2709757 32.7334732,23.3840207 C32.8465765,23.4971461 32.9165649,23.6534098 32.9165649,23.8259888 Z M39.0625,4.87701414 L39.0625,25.9042359 C39.0625,26.9903694 38.6202996,27.9750178 37.9070337,28.6882837 C37.1937678,29.4015496 36.2091194,29.84375 35.1229859,29.84375 L27.0128868,29.84375 L29.6691368,37.8125 L32.2918702,37.8125 C32.4644377,37.8125 32.620692,37.8824837 32.733807,37.9955987 C32.8468966,38.1086883 32.9168702,38.2649137 32.9168702,38.4375 C32.9168702,38.6100863 32.8468966,38.7663117 32.733807,38.8794013 C32.620692,38.9925163 32.4644377,39.0625 32.2918702,39.0625 L7.70843508,39.0625 C7.53582766,39.0625 7.37956222,38.9925798 7.26645877,38.8794763 C7.15335532,38.7663729 7.08343508,38.6101074 7.08343508,38.4375 C7.08343508,38.2648926 7.15335532,38.1086271 7.26645877,37.9955237 C7.37956222,37.8824202 7.53582766,37.8125 7.70843508,37.8125 L10.3308632,37.8125 L12.9871132,29.84375 L4.87701414,29.84375 C3.79088065,29.84375 2.80623221,29.4015496 2.09296631,28.6882837 C1.3797004,27.9750178 0.9375,26.9903694 0.9375,25.9042359 L0.9375,4.87701414 C0.9375,3.79088065 1.3797004,2.80623221 2.09296631,2.09296631 C2.80623221,1.3797004 3.79088065,0.9375 4.87701414,0.9375 L35.1229859,0.9375 C36.2091194,0.9375 37.1937678,1.3797004 37.9070337,2.09296631 C38.6202996,2.80623221 39.0625,3.79088065 39.0625,4.87701414 Z M4.87701414,2.1875 C4.13565269,2.1875 3.46301605,2.48876188 2.97588896,2.97588896 C2.48876188,3.46301605 2.1875,4.13565269 2.1875,4.87701414 L2.1875,25.9042359 C2.1875,26.6455973 2.48876188,27.3182339 2.97588896,27.805361 C3.46301605,28.2924881 4.13565269,28.59375 4.87701414,28.59375 L35.1229859,28.59375 C35.8643473,28.59375 36.5369839,28.2924881 37.024111,27.805361 C37.5112381,27.3182339 37.8125,26.6455973 37.8125,25.9042359 L37.8125,4.87701414 C37.8125,4.13565269 37.5112381,3.46301605 37.024111,2.97588896 C36.5369839,2.48876188 35.8643473,2.1875 35.1229859,2.1875 L4.87701414,2.1875 Z M14.304757,29.84375 L11.6485071,37.8125 L28.3514309,37.8125 L25.69558,29.84375 L14.304757,29.84375 Z M32.9168701,7.70843506 L32.9168701,18.4335327 C32.9168701,18.606119 32.8468965,18.7623444 32.733807,18.875434 C32.620692,18.988549 32.4644376,19.0585327 32.2918701,19.0585327 L7.70843506,19.0585327 C7.53582764,19.0585327 7.3795622,18.9886125 7.26645875,18.875509 C7.1533553,18.7624056 7.08343506,18.6061401 7.08343506,18.4335327 L7.08343506,7.70843506 C7.08343506,7.53582764 7.1533553,7.3795622 7.26645875,7.26645875 C7.3795622,7.1533553 7.53582764,7.08343506 7.70843506,7.08343506 L32.2915649,7.08343506 C32.4641964,7.08343506 32.6204756,7.15337709 32.7336105,7.26648991 C32.8468106,7.37966786 32.9168701,7.53604118 32.9168701,7.70843506 Z M25.5209351,17.8085327 L25.5209351,8.33343506 L8.33343506,8.33343506 L8.33343506,17.8085327 L25.5209351,17.8085327 Z M26.7709351,8.33312988 L26.7709351,17.8085327 L31.6665649,17.8085327 L31.6665649,8.33312988 L26.7709351,8.33312988 Z" id="Shape"></path>
        </g>
    </g>
</svg>
