<?xml version="1.0" encoding="UTF-8"?>
<svg width="36px" height="35px" viewBox="0 0 36 35" version="1.1" xmlns="http://www.w3.org/2000/svg" xmlns:xlink="http://www.w3.org/1999/xlink">
    <!-- Generator: sketchtool 60.1 (101010) - https://sketch.com -->
    <title>2188F716-5913-4144-8CD9-97783616B534</title>
    <desc>Created with sketchtool.</desc>
    <g id="Asset-Artboard-Page" stroke="none" stroke-width="1" fill="none" fill-rule="evenodd">
        <g id="ui/Medium/chevron-right-circle-ui/Thin/mkt-prime" transform="translate(0.502435, 0.000000)" fill="#004F9F">
            <path d="M30.5566406,7.29282364 C30.5566406,13.6838412 29.8759237,19.6331728 27.5105546,24.5408941 C25.5740817,28.5587319 22.4971321,31.8643249 17.7348103,34.1267984 C17.5862503,34.1973377 17.4137497,34.1973377 17.2653411,34.1268703 C12.5063386,31.866008 9.4282222,28.5637045 7.49013582,24.542519 C5.12943547,19.6444845 4.44335938,13.7010215 4.44335938,7.29282364 C4.44335938,7.14179215 4.50453958,7.0050599 4.6035051,6.90609438 C4.70247063,6.80712887 4.83920288,6.74594866 4.99023438,6.74594866 C11.8080019,6.74594866 17.0387977,1.06102795 17.0908099,1.00367392 C17.2017343,0.880581714 17.3513085,0.820278469 17.5006896,0.820278469 C17.6497411,0.820278469 17.7988654,0.880374239 17.9070805,1.00098116 C17.998537,1.101553 23.2162234,6.74594866 30.0097656,6.74594866 C30.1607971,6.74594866 30.2975294,6.80712887 30.3964949,6.90609438 C30.4954604,7.0050599 30.5566406,7.14179215 30.5566406,7.29282364 Z M17.8736372,32.8388913 C22.1021057,30.6754564 24.8584437,27.579016 26.6213892,23.8561006 C28.6914997,19.4845271 29.3784214,14.2326965 29.4545382,8.6067548 C29.4580549,8.34683043 29.4602467,8.08766905 29.461036,7.82931849 C29.2126083,7.81906865 28.9623867,7.80242049 28.7105947,7.7789004 C23.6907239,7.30999026 19.7900915,4.27256536 18.0540152,2.68269575 C17.8837539,2.52677332 17.6977966,2.35133377 17.5000034,2.1570269 C17.302208,2.35133223 17.1162486,2.52677155 16.9459854,2.68269575 C15.2099097,4.2725648 11.3095349,7.30999003 6.28940976,7.77890004 C6.03761442,7.80241925 5.78739067,7.81906681 5.53896189,7.82931631 C5.53975228,8.0876704 5.54194499,8.34683333 5.5454624,8.60675715 C5.62158454,14.2318989 6.30827011,19.4840151 8.37860143,23.856055 C10.141465,27.5787973 12.8977422,30.6753842 17.1263642,32.8388917 C17.2510005,32.9026599 17.3755458,32.9649165 17.500001,33.0256761 C17.624456,32.9649163 17.7490012,32.9026595 17.8736372,32.8388913 Z" id="Shape"></path>
            <path d="M17.4999989,14.3554688 C17.5615501,14.3554688 17.6234017,14.3712858 17.6770226,14.4045471 C17.7259639,14.4349055 17.7670157,14.4801531 17.7957607,14.5383604 L18.6310016,16.2304647 L20.4987089,16.5017816 C20.5630872,16.5111269 20.6188434,16.5361451 20.6628566,16.5732917 C20.7110026,16.6139262 20.7451076,16.6677602 20.7640944,16.7261879 C20.7830828,16.7846202 20.7871378,16.8482184 20.7720757,16.9093804 C20.7583177,16.9652469 20.7279534,17.0182017 20.6813127,17.0636289 L19.3298844,18.3806395 L19.6489928,20.2404154 C19.6599698,20.304448 19.6533995,20.3651178 19.6316832,20.4183767 C19.6078959,20.476715 19.5672,20.5257641 19.5174822,20.5618781 C19.4676488,20.5980761 19.408263,20.621637 19.3452913,20.6262507 C19.2878318,20.6304606 19.2280039,20.6180011 19.1705602,20.5878248 L17.499961,19.7097025 L15.8296676,20.5877629 C15.7720472,20.6180304 15.7121845,20.6305339 15.6546977,20.6263322 C15.5917792,20.6217335 15.5324627,20.5981928 15.4826871,20.5620368 C15.4329376,20.5258997 15.3922311,20.4768077 15.3684329,20.418442 C15.3467111,20.3651684 15.3401247,20.3044917 15.3511029,20.240498 L15.6702292,18.3808056 L14.3185962,17.0635907 C14.2720449,17.0182349 14.2416667,16.9652769 14.2279112,16.9094071 C14.2128604,16.8482768 14.2169277,16.7847221 14.2359098,16.7263297 C14.254916,16.6678631 14.2890599,16.6140005 14.3372353,16.5733399 C14.3812715,16.5361729 14.4370452,16.5111281 14.5014523,16.5017742 L16.3691083,16.2304647 L17.2043083,14.5384434 C17.2331025,14.4801368 17.2741425,14.4348754 17.3230781,14.4045158 C17.3766702,14.3712674 17.438486,14.3554688 17.4999989,14.3554688 Z M17.9047376,17.2301925 L17.5,16.4102832 L17.0953724,17.2301925 L16.1913965,17.3615039 L16.8454987,17.9989186 L16.6909668,18.899248 L17.4999325,18.474045 L18.30917,18.8993847 L18.1546232,17.9987431 L18.8084668,17.3614355 L17.9047376,17.2301925 Z" id="Path"></path>
        </g>
    </g>
</svg>