<?xml version="1.0" encoding="UTF-8"?>
<svg width="50px" height="50px" viewBox="0 0 50 50" version="1.1" xmlns="http://www.w3.org/2000/svg" xmlns:xlink="http://www.w3.org/1999/xlink">
    <!-- Generator: sketchtool 60.1 (101010) - https://sketch.com -->
    <title>331F85EE-06C9-4809-9910-162B465D771A</title>
    <desc>Created with sketchtool.</desc>
    <g id="Asset-Artboard-Page" stroke="none" stroke-width="1" fill="none" fill-rule="evenodd">
        <g id="ui/Medium/chevron-right-circle-ui/Thin/ressources" fill="#0070C0">
            <path d="M1.953125,1.171875 L48.046875,1.171875 C48.2626343,1.171875 48.4579661,1.2592753 48.5993454,1.40065461 C48.7407247,1.54203393 48.828125,1.73736572 48.828125,1.953125 L48.828125,24.9992371 L48.828125,48.046875 C48.828125,48.2626343 48.7407247,48.4579661 48.5993454,48.5993454 C48.4579661,48.7407247 48.2626343,48.828125 48.046875,48.828125 L1.953125,48.828125 C1.73736572,48.828125 1.54203393,48.7407247 1.40065461,48.5993454 C1.2592753,48.4579661 1.171875,48.2626343 1.171875,48.046875 L1.171875,1.953125 C1.171875,1.73736572 1.2592753,1.54203393 1.40065461,1.40065461 C1.54203393,1.2592753 1.73736572,1.171875 1.953125,1.171875 Z M2.734375,47.265625 L24.21875,47.265625 L24.21875,42.1804035 C22.2719554,42.4492806 20.4787811,41.7282759 19.2676599,40.4511103 C18.2961743,39.426648 17.6990509,38.0435441 17.6990509,36.5234375 C17.6990509,35.0033309 18.2961743,33.620227 19.2676599,32.5957647 C20.4787811,31.3185991 22.2719554,30.5975944 24.21875,30.8664715 L24.21875,18.1453705 C24.21875,17.8779245 24.3506496,17.6502068 24.5454555,17.5107144 C24.7402911,17.3712006 24.9983947,17.3196564 25.25155,17.4057963 C25.6834754,17.5526085 26.1331165,17.6269531 26.5880585,17.6269531 C27.7322331,17.6269531 28.7701338,17.1619546 29.5217922,16.4102963 C30.2734506,15.6586379 30.7384491,14.6207372 30.7384491,13.4765625 C30.7384491,12.3323878 30.2734506,11.2944871 29.5217922,10.5428287 C28.7701338,9.79117036 27.7322331,9.32617188 26.5880585,9.32617188 C26.1331329,9.32617188 25.6834754,9.40089797 25.2519118,9.54758711 C24.998503,9.63378728 24.7405059,9.58211405 24.5457398,9.44262133 C24.3508324,9.30302747 24.21875,9.07521769 24.21875,8.80775449 L24.21875,2.734375 L2.734375,2.734375 L2.734375,47.265625 Z M25.78125,2.734375 L25.78125,7.81959652 C27.7280446,7.55071936 29.5212189,8.27172412 30.7323401,9.54888973 C31.7038257,10.573352 32.3009491,11.9564559 32.3009491,13.4765625 C32.3009491,14.9966691 31.7038257,16.379773 30.7323401,17.4042353 C29.5212189,18.6814009 27.7280446,19.4024056 25.78125,19.1335285 L25.78125,24.21875 L31.8546295,24.21875 C32.1220297,24.21875 32.3497174,24.3507435 32.4892172,24.5455598 C32.6287115,24.7403683 32.6803338,24.9984235 32.5942037,25.25155 C32.4473915,25.6834754 32.3730469,26.1331165 32.3730469,26.5880585 C32.3730469,27.7322947 32.8379953,28.7702268 33.5896546,29.5218862 C34.3412312,30.2734627 35.3790587,30.7384491 36.5234375,30.7384491 C37.6676122,30.7384491 38.7055129,30.2734506 39.4571713,29.5217922 C40.2088296,28.7701338 40.6738281,27.7322331 40.6738281,26.5880585 C40.6738281,26.1336643 40.599669,25.6845673 40.4524264,25.2519516 C40.3663328,24.9986317 40.417939,24.7404318 40.557528,24.5455313 C40.6970694,24.3506973 40.9248089,24.21875 41.1922455,24.21875 L47.265625,24.21875 L47.265625,2.734375 L25.78125,2.734375 Z M25.78125,25.78125 L25.78125,31.8546295 C25.78125,32.1221045 25.6493211,32.3498331 25.4545046,32.4893619 C25.2596025,32.628952 25.0014048,32.6805806 24.7467707,32.5940128 C24.315588,32.4472316 23.8664143,32.3730469 23.4119415,32.3730469 C22.2677669,32.3730469 21.2298662,32.8380454 20.4782078,33.5897037 C19.7265494,34.3413621 19.2615509,35.3792628 19.2615509,36.5234375 C19.2615509,37.6676122 19.7265494,38.7055129 20.4782078,39.4571713 C21.2298662,40.2088296 22.2677669,40.6738281 23.4119415,40.6738281 C23.8668835,40.6738281 24.3165246,40.5994835 24.7480882,40.4527943 C25.0015323,40.3666081 25.2596401,40.4181077 25.4544728,40.5576192 C25.6493137,40.6971367 25.78125,40.9248763 25.78125,41.1922455 L25.78125,47.265625 L47.265625,47.265625 L47.265625,25.78125 L42.1804026,25.78125 C42.4492886,27.7280498 41.7282441,29.5213696 40.4510283,30.7326094 C39.4265797,31.7041388 38.0435108,32.3013306 36.5234375,32.3013306 C35.0033642,32.3013306 33.6202953,31.7041388 32.5958468,30.7326094 C31.3186309,29.5213696 30.5975864,27.7280498 30.8664724,25.78125 L25.78125,25.78125 Z" id="Shape"></path>
        </g>
    </g>
</svg>