<?xml version="1.0" encoding="UTF-8"?>
<svg width="71px" height="70px" viewBox="0 0 71 70" version="1.1" xmlns="http://www.w3.org/2000/svg" xmlns:xlink="http://www.w3.org/1999/xlink">
    <!-- Generator: sketchtool 60.1 (101010) - https://sketch.com -->
    <title>3CC1D7FD-CB1B-4E80-A3D6-DB788250D0B1</title>
    <desc>Created with sketchtool.</desc>
    <g id="Asset-Artboard-Page" stroke="none" stroke-width="1" fill="none" fill-rule="evenodd">
        <g id="certifications/ul-copy-certifications/ul" transform="translate(0.502435, 0.000000)" fill="#777772">
            <path d="M35,0 C54.3358638,0 70,15.661866 70,35 C70,54.3213259 54.3358638,70 35,70 C15.6786741,70 0,54.3213259 0,35 C0,15.661866 15.6786741,0 35,0 Z M34.9359429,6.49844257 C19.2654472,6.49844257 6.49844257,19.2531791 6.49844257,34.935942 C6.49844257,50.7345525 19.2654472,63.4870188 34.9359429,63.5192748 C50.7468216,63.4870188 63.5015585,50.7345525 63.5192766,34.935942 C63.5015585,19.2531791 50.7468216,6.49844257 34.9359429,6.49844257 Z M44.2429263,26.1913961 L44.2429263,48.2122294 L52.1179263,48.2122294 L52.1179263,53.7538961 L37.8262596,53.7538961 L37.8262596,26.1913961 L44.2429263,26.1913961 Z M26.5480309,46.2059975 C28.6651105,46.2059975 30.3278837,47.8664958 30.3396977,49.8518308 C30.3278837,51.9666402 28.6651105,53.6294134 26.5480309,53.6434975 C24.5649661,53.6294134 22.9021975,51.9666402 22.9021975,49.8518308 C22.9021975,47.8664958 24.5649661,46.2059975 26.5480309,46.2059975 Z M24.3419,16.2238426 L24.3419,37.0780093 C24.3809738,38.3419004 24.7853089,39.479946 26.6752333,39.4113426 C28.3152931,39.479946 28.830935,38.0102547 28.8627333,36.7863426 L28.8627333,16.2238426 L35.2794089,16.2238426 L35.2794089,36.2030093 C35.2844006,40.8406006 33.194576,44.4432742 26.5294,44.5155093 C21.1167565,44.4432742 17.9252334,41.8332672 17.9252334,36.2030093 L17.9252334,16.2238426 L24.3419,16.2238426 Z" id="Underwriters_Laboratories_logo"></path>
        </g>
    </g>
</svg>