<?xml version="1.0" encoding="UTF-8"?>
<svg width="40px" height="40px" viewBox="0 0 40 40" version="1.1" xmlns="http://www.w3.org/2000/svg" xmlns:xlink="http://www.w3.org/1999/xlink">
    <!-- Generator: sketchtool 61.2 (101010) - https://sketch.com -->
    <title>08C3496F-EABE-459D-B143-343F0FEEDC08</title>
    <desc>Created with sketchtool.</desc>
    <g id="Asset-Artboard-Page" stroke="none" stroke-width="1" fill-rule="evenodd">
        <g id="ui/Medium/chevron-left-ui/Thin/energy-storage">
            <path d="M30.3170776,32.2375488 C30.3170776,32.4421763 30.2334613,32.6274963 30.0991495,32.7618082 C29.9648376,32.89612 29.7795176,32.9797363 29.5748901,32.9797363 C29.3702627,32.9797363 29.1849427,32.89612 29.0506308,32.7618082 C28.9163189,32.6274963 28.8327026,32.4421763 28.8327026,32.2375488 C28.8327026,32.0329214 28.9163189,31.8476014 29.0506308,31.7132895 C29.1849427,31.5789776 29.3702627,31.4953613 29.5748901,31.4953613 C29.7795176,31.4953613 29.9648376,31.5789776 30.0991495,31.7132895 C30.2334613,31.8476014 30.3170776,32.0329214 30.3170776,32.2375488 Z M36.9244832,11.1283636 L30.7771117,20.3469801 C30.6812364,20.4907017 30.5364982,20.5818135 30.3798528,20.6131205 C30.2227966,20.6445096 30.0538347,20.615955 29.910519,20.5203909 C29.7668935,20.4245796 29.6756769,20.2796014 29.644316,20.1226643 C29.6129687,19.9657949 29.6414401,19.7969637 29.7372015,19.6533522 L35.2364711,11.406486 L27.0370477,11.406486 C26.9178228,11.406486 26.809439,11.3763498 26.718292,11.3216686 C26.619094,11.2621574 26.5405962,11.1755906 26.4873417,11.0760463 C26.4339771,10.9762962 26.4055213,10.8627095 26.4110492,10.7469718 C26.4161224,10.6407545 26.4511026,10.5338274 26.5172996,10.4345905 L32.6642006,1.21622171 C32.7601277,1.07251441 32.9051158,0.981155666 33.062138,0.949777769 C33.2190267,0.918426541 33.3878491,0.946999531 33.5312518,1.04258099 C33.6748267,1.13835858 33.7659636,1.28329089 33.7973116,1.44016342 C33.8286835,1.59715559 33.8001927,1.76612367 33.7045856,1.90959543 L28.204929,10.1564859 L36.4044179,10.1564859 C36.5236418,10.1564859 36.6320243,10.1866219 36.7231733,10.2413006 C36.8223901,10.3008189 36.9009043,10.3873985 36.9541783,10.486956 C37.0075716,10.5867362 37.0360517,10.7003585 37.0305434,10.8161331 C37.0254895,10.9223574 36.9905382,11.0292956 36.9244832,11.1283636 Z M15.0430298,17.5445557 C15.0430298,17.7171631 14.9731096,17.8734285 14.8600061,17.986532 C14.7469027,18.0996354 14.5906372,18.1695557 14.4180298,18.1695557 L7.93365479,18.1695557 C7.76108724,18.1695557 7.60483292,18.099572 7.49171789,17.986457 C7.37862833,17.8733674 7.30865479,17.7171419 7.30865479,17.5445557 C7.30865479,17.3719694 7.37862836,17.2157439 7.49171793,17.1026544 C7.60483295,16.9895393 7.76108725,16.9195557 7.93365479,16.9195557 L14.4180298,16.9195557 C14.5906372,16.9195557 14.7469026,16.9894759 14.8600061,17.1025794 C14.9731095,17.2156828 15.0430298,17.3719483 15.0430298,17.5445557 Z M15.0430298,9.0625 C15.0430298,9.23510742 14.9731095,9.39137286 14.8600061,9.50447631 C14.7469026,9.61757976 14.5906372,9.6875 14.4180298,9.6875 L7.93365479,9.6875 C7.76108725,9.6875 7.60483294,9.61751634 7.49171791,9.50440131 C7.37862834,9.39131174 7.30865479,9.23508627 7.30865479,9.0625 C7.30865479,8.88991373 7.37862834,8.73368826 7.49171791,8.62059869 C7.60483294,8.50748366 7.76108725,8.4375 7.93365479,8.4375 L14.4180298,8.4375 C14.5906372,8.4375 14.7469026,8.50742024 14.8600061,8.62052369 C14.9731095,8.73362714 15.0430298,8.88989258 15.0430298,9.0625 Z M15.0430298,29.2687988 C15.0430298,30.3349854 14.6089602,31.3015809 13.9087743,32.0017667 C13.2086305,32.7019105 12.2420864,33.1359863 11.1758423,33.1359863 C10.1096884,33.1359863 9.14312686,32.7018689 8.44294954,32.0016916 C7.74277222,31.3015142 7.30865479,30.3349527 7.30865479,29.2687988 C7.30865479,28.2026449 7.74277222,27.2360834 8.44294954,26.5359061 C9.14312686,25.8357288 10.1096884,25.4016113 11.1758423,25.4016113 C12.2420864,25.4016113 13.2086305,25.8356871 13.9087743,26.5358309 C14.6089602,27.2360168 15.0430298,28.2026123 15.0430298,29.2687988 Z M13.7930298,29.2687988 C13.7930298,28.5472178 13.4999066,27.892694 13.0259268,27.4187143 C12.5519471,26.9447345 11.8974233,26.6516113 11.1758423,26.6516113 C10.4542612,26.6516113 9.79973749,26.9447345 9.32575773,27.4187143 C8.85177798,27.892694 8.55865479,28.5472178 8.55865479,29.2687988 C8.55865479,29.9903799 8.85177798,30.6449036 9.32575773,31.1188834 C9.79973749,31.5928631 10.4542612,31.8859863 11.1758423,31.8859863 C11.8974233,31.8859863 12.5519471,31.5928631 13.0259268,31.1188834 C13.4999066,30.6449036 13.7930298,29.9903799 13.7930298,29.2687988 Z M39.0625119,26.0093346 L39.0625119,38.4375 C39.0625119,38.6081678 38.9941653,38.7628627 38.8833187,38.8756732 C38.7736994,38.9872346 38.6225638,39.0579696 38.4548765,39.0625 L1.56250002,39.0625 C1.39184242,39.0625 1.23715499,38.9941599 1.12435392,38.8833019 C1.01275175,38.7736223 0.942029781,38.6223868 0.9375,38.454585 L0.9375,1.5625 C0.9375,1.39184241 1.00584013,1.23715498 1.11669806,1.12435392 C1.22637774,1.01275175 1.37761321,0.94202978 1.54541497,0.9375 L20.7858282,0.9375 C20.9564037,0.9375 21.111055,1.00586469 21.2238128,1.11671717 C21.3352846,1.2263054 21.4059365,1.37740387 21.4103054,1.54507267 L21.410476,25.4015597 L38.4378061,25.4016113 C38.6083996,25.4016113 38.7630614,25.4699922 38.8758428,25.5808517 C38.9873661,25.6904745 39.0580711,25.8416164 39.0625119,26.0093346 Z M20.1608276,2.1875 L2.18719482,2.1875 L2.18719482,37.8125 L20.1608276,37.8125 L20.1608276,2.1875 Z M37.8131104,26.6516113 L21.4108276,26.6516113 L21.4108276,37.8125 L37.8131104,37.8125 L37.8131104,26.6516113 Z" id="Shape"></path>
        </g>
    </g>
</svg>
