<?xml version="1.0" encoding="UTF-8"?>
<svg width="40px" height="40px" viewBox="0 0 40 40" version="1.1" xmlns="http://www.w3.org/2000/svg" xmlns:xlink="http://www.w3.org/1999/xlink">
    <!-- Generator: sketchtool 61.2 (101010) - https://sketch.com -->
    <title>0789AF81-58CC-47AA-9BAA-29070DA5EBCA</title>
    <desc>Created with sketchtool.</desc>
    <g id="Asset-Artboard-Page" stroke="none" stroke-width="1" fill-rule="evenodd">
        <g id="ui/Medium/chevron-left-ui/Thin/power-conversion">
            <path d="M25.625,11.5625 C25.625,11.7331207 25.5566418,11.887782 25.4457917,12.0005584 C25.3361438,12.1121119 25.1849611,12.1828153 25.0172208,12.1872732 L17.1875,12.1875 C17.0168793,12.1875 16.862218,12.1191418 16.7494416,12.0082917 C16.6378883,11.8986439 16.5671849,11.7474616 16.5627269,11.5797215 L16.5624748,2.21523436 L10,2.21523436 L10,11.5625 C10,11.7331207 9.93164178,11.887782 9.82079175,12.0005584 C9.71114379,12.1121119 9.55996113,12.1828153 9.39222075,12.1872732 L1.5625,12.1875 C1.39186141,12.1875 1.23718977,12.1191257 1.12438988,12.0082688 C1.01278702,11.8985882 0.942031328,11.7473654 0.9375,11.5795792 L0.9375,1.590271 C0.9375,1.41768201 1.00745551,1.26143201 1.12055826,1.14832926 C1.23366102,1.0352265 1.38991102,0.965270996 1.5625,0.965270996 C1.73312068,0.965270996 1.88778199,1.03362922 2.00055842,1.14447925 C2.11211173,1.25412704 2.18281512,1.40530942 2.18727315,1.5730495 L2.18752524,10.9374219 L8.75,10.9374219 L8.75,1.590271 C8.75,1.41965032 8.81835822,1.26498901 8.92920825,1.15221258 C9.03885621,1.04065911 9.19003887,0.969955664 9.35777925,0.965497829 L17.1875,0.965270996 C17.3581207,0.965270996 17.512782,1.03362922 17.6255584,1.14447925 C17.7371117,1.25412704 17.8078151,1.40530942 17.8122731,1.5730495 L17.8125252,10.9374219 L24.375,10.9374219 L24.375,1.590271 C24.375,1.41965032 24.4433582,1.26498901 24.5542083,1.15221258 C24.6638562,1.04065911 24.8150389,0.969955664 24.9827792,0.965497829 L32.8125,0.965270996 C32.9831386,0.965270996 33.1378102,1.03364527 33.2506101,1.14450223 C33.362213,1.25418279 33.4329687,1.40540556 33.4375,1.57319183 L33.4375,13.59375 C33.4375,13.766339 33.3675445,13.922589 33.2544417,14.0356917 C33.141339,14.1487945 32.985089,14.21875 32.8125,14.21875 C32.6418793,14.21875 32.487218,14.1503918 32.3744416,14.0395417 C32.2628887,13.9298944 32.1921854,13.7787127 32.1877269,13.6109734 L32.1874797,2.21523436 L25.625,2.21523436 L25.625,11.5625 Z" id="Path-3"></path>
            <path d="M33.4375,29.8484196 L33.4375,38.4375 C33.4375,38.610089 33.3675445,38.766339 33.2544417,38.8794417 C33.141339,38.9925445 32.985089,39.0625 32.8125,39.0625 C32.6418793,39.0625 32.487218,38.9941418 32.3744416,38.8832918 C32.2628882,38.7736439 32.1921848,38.6224614 32.1877268,38.4547211 L32.1874852,29.8339495 C32.1847592,28.9309729 31.8160452,28.114736 31.2222693,27.5251666 C30.6288856,26.9359866 29.8107374,26.5731748 28.9084717,26.5763821 C28.0106393,26.5795736 27.1977289,26.9416237 26.6053521,27.5263817 C26.0101212,28.1139573 25.6376827,28.9264315 25.6253153,29.8256201 L25.625,32.0312503 C25.625,33.2825204 25.1178226,34.4153328 24.2978276,35.2353278 C23.4778326,36.0553227 22.3450201,36.5625001 21.09375,36.5625001 C19.8560618,36.5625001 18.7342648,36.0662836 17.9164816,35.2619161 C17.098173,34.457032 16.5841395,33.3436405 16.5631697,32.1101137 L16.5625,32.0274528 L16.5625,29.8715214 C16.5625,28.9654293 16.1952336,28.1451168 15.6014441,27.5513274 C15.0076547,26.9575379 14.1873422,26.5902715 13.28125,26.5902715 C12.3849603,26.5902715 11.572613,26.9496448 10.9804098,27.5321328 C10.3853394,28.1174411 10.0126802,28.92807 10.000315,29.825715 L10,32.0312503 C10,33.2825204 9.49282257,34.4153328 8.6728276,35.2353278 C7.85283264,36.0553227 6.72002014,36.5625001 5.46875,36.5625001 C4.23106177,36.5625001 3.10926482,36.0662836 2.29148158,35.2619161 C1.47317296,34.457032 0.959139512,33.3436405 0.938169668,32.1101137 L0.9375,32.0274528 L0.9375,25.9652716 C0.9375,25.7926826 1.00745551,25.6364326 1.12055826,25.5233298 C1.23366102,25.4102271 1.38991102,25.3402716 1.5625,25.3402716 C1.73312068,25.3402716 1.88778199,25.4086298 2.00055842,25.5194798 C2.11211256,25.6291284 2.18281618,25.7803123 2.18727325,25.9480538 L2.1875,32.0312503 C2.1875,32.9373424 2.55476642,33.7576549 3.14855587,34.3514443 C3.74234533,34.9452338 4.56265783,35.3125002 5.46875,35.3125002 C6.36503969,35.3125002 7.17738697,34.9531269 7.76959017,34.3706389 C8.36466063,33.7853306 8.73731981,32.9747017 8.74968501,32.0770567 L8.75,29.8715214 C8.75,28.6202513 9.25717743,27.4874389 10.0771724,26.6674439 C10.8971674,25.847449 12.0299799,25.3402716 13.28125,25.3402716 C14.5189382,25.3402716 15.6407352,25.8364881 16.4585184,26.6408556 C17.276827,27.4457397 17.7908605,28.5591311 17.8118303,29.792658 L17.8125,29.8753189 L17.8125,32.0312503 C17.8125,32.9373424 18.1797664,33.7576549 18.7735559,34.3514443 C19.3673453,34.9452338 20.1876578,35.3125002 21.09375,35.3125002 C21.9900397,35.3125002 22.802387,34.9531269 23.3945902,34.3706389 C23.9896606,33.7853306 24.3623198,32.9747017 24.374685,32.0770567 L24.375,29.8715461 C24.375,28.6195822 24.8812783,27.485519 25.700545,26.6633298 C26.5198155,25.8411365 27.6520773,25.3308197 28.9040173,25.3263259 C30.1379237,25.3219833 31.2580514,25.8127159 32.0761856,26.611732 C32.8946655,27.4110857 33.4110256,28.5189435 33.436508,29.7483049 L33.4375,29.8484196 Z" id="Path-3" transform="translate(17.187500, 32.194413) scale(1, -1) translate(-17.187500, -32.194413) "></path>
            <path d="M21.875,20 C21.875,20.1294417 21.8225334,20.2466292 21.7377063,20.3314563 C21.6528792,20.4162834 21.5356917,20.46875 21.40625,20.46875 C21.2768083,20.46875 21.1596208,20.4162834 21.0747937,20.3314563 C20.9899666,20.2466292 20.9375,20.1294417 20.9375,20 C20.9375,19.8705583 20.9899666,19.7533708 21.0747937,19.6685437 C21.1596208,19.5837166 21.2768083,19.53125 21.40625,19.53125 C21.5356917,19.53125 21.6528792,19.5837166 21.7377063,19.6685437 C21.8225334,19.7533708 21.875,19.8705583 21.875,20 Z M16.25,20 C16.25,20.1294417 16.1975334,20.2466292 16.1127063,20.3314563 C16.0278792,20.4162834 15.9106917,20.46875 15.78125,20.46875 C15.6518083,20.46875 15.5346208,20.4162834 15.4497937,20.3314563 C15.3649666,20.2466292 15.3125,20.1294417 15.3125,20 C15.3125,19.8705583 15.3649666,19.7533708 15.4497937,19.6685437 C15.5346208,19.5837166 15.6518083,19.53125 15.78125,19.53125 C15.9106917,19.53125 16.0278792,19.5837166 16.1127063,19.6685437 C16.1975334,19.7533708 16.25,19.8705583 16.25,20 Z M10.625,20 C10.625,20.1294417 10.5725334,20.2466292 10.4877063,20.3314563 C10.4028792,20.4162834 10.2856917,20.46875 10.15625,20.46875 C10.0268083,20.46875 9.90962076,20.4162834 9.8247937,20.3314563 C9.73996663,20.2466292 9.6875,20.1294417 9.6875,20 C9.6875,19.8705583 9.73996663,19.7533708 9.8247937,19.6685437 C9.90962076,19.5837166 10.0268083,19.53125 10.15625,19.53125 C10.2856917,19.53125 10.4028792,19.5837166 10.4877063,19.6685437 C10.5725334,19.7533708 10.625,19.8705583 10.625,20 Z M5,20 C5,20.1294417 4.94753337,20.2466292 4.8627063,20.3314563 C4.77787924,20.4162834 4.66069174,20.46875 4.53125,20.46875 C4.40180826,20.46875 4.28462076,20.4162834 4.1997937,20.3314563 C4.11496663,20.2466292 4.0625,20.1294417 4.0625,20 C4.0625,19.8705583 4.11496663,19.7533708 4.1997937,19.6685437 C4.28462076,19.5837166 4.40180826,19.53125 4.53125,19.53125 C4.66069174,19.53125 4.77787924,19.5837166 4.8627063,19.6685437 C4.94753337,19.7533708 5,19.8705583 5,20 Z M39.0625,20 C39.0625,21.7258898 38.3629449,23.2883898 37.2319174,24.4194174 C36.1008898,25.5504449 34.5383898,26.25 32.8125,26.25 C31.0866102,26.25 29.5241102,25.5504449 28.3930826,24.4194174 C27.2620551,23.2883898 26.5625,21.7258898 26.5625,20 C26.5625,18.2741102 27.2620551,16.7116102 28.3930826,15.5805826 C29.5241102,14.4495551 31.0866102,13.75 32.8125,13.75 C34.5383898,13.75 36.1008898,14.4495551 37.2319174,15.5805826 C38.3629449,16.7116102 39.0625,18.2741102 39.0625,20 Z M38.125,20 C38.125,18.5329936 37.5303782,17.2048686 36.5690048,16.2434952 C35.6076314,15.2821218 34.2795064,14.6875 32.8125,14.6875 C31.3454936,14.6875 30.0173686,15.2821218 29.0559952,16.2434952 C28.0946218,17.2048686 27.5,18.5329936 27.5,20 C27.5,21.4670064 28.0946218,22.7951314 29.0559952,23.7565048 C30.0173686,24.7178782 31.3454936,25.3125 32.8125,25.3125 C34.2795064,25.3125 35.6076314,24.7178782 36.5690048,23.7565048 C37.5303782,22.7951314 38.125,21.4670064 38.125,20 Z" id="Shape"></path>
        </g>
    </g>
</svg>
