<?xml version="1.0" encoding="UTF-8"?>
<svg width="40px" height="40px" viewBox="0 0 40 40" version="1.1" xmlns="http://www.w3.org/2000/svg" xmlns:xlink="http://www.w3.org/1999/xlink">
    <!-- Generator: sketchtool 61.2 (101010) - https://sketch.com -->
    <title>Switching</title>
    <desc>Created with sketchtool.</desc>
    <g id="Asset-Artboard-Page" stroke="none" stroke-width="1" fill-rule="evenodd">
        <g id="ui/Medium/chevron-left-ui/Thin/switching">
            <path d="M38.873336,17.27364 C38.7611843,17.3857917 38.6062358,17.4551391 38.4350586,17.4551391 L32.8671265,17.4551391 L32.8671265,29.118042 C32.8671265,29.2892007 32.7977689,29.4441778 32.6855918,29.5563549 C32.5734401,29.6685066 32.4184917,29.737854 32.2473144,29.737854 L26.7416382,29.737854 L26.7416382,35.272522 C26.7416382,35.4436596 26.6722272,35.5985967 26.5600641,35.7107599 C26.4479009,35.822923 26.2929638,35.892334 26.1218262,35.892334 C25.9506886,35.892334 25.7957514,35.822923 25.6835882,35.7107599 C25.5714251,35.5985967 25.5020141,35.4436596 25.5020141,35.272522 L25.5020141,29.737854 L20.6161499,29.737854 L20.6161499,38.442688 C20.6161499,38.6138256 20.546739,38.7687627 20.4345758,38.8809259 C20.3224127,38.9930891 20.1674755,39.0625 19.9963379,39.0625 C19.8251606,39.0625 19.6702122,38.9931526 19.5580605,38.8810009 C19.4458834,38.7688238 19.3765258,38.6138467 19.3765258,38.442688 L19.3765258,29.737854 L14.4906616,29.737854 L14.4906616,35.272522 C14.4906616,35.443648 14.4212555,35.5985758 14.3090808,35.7107285 C14.1968509,35.8229364 14.0418051,35.892334 13.8705444,35.892334 C13.6994068,35.892334 13.5444697,35.822923 13.4323065,35.7107599 C13.3201434,35.5985967 13.2507324,35.4436596 13.2507324,35.272522 L13.2507324,29.737854 L7.74505617,29.737854 C7.57391856,29.737854 7.41898139,29.668443 7.30681823,29.5562799 C7.19465508,29.4441167 7.12524414,29.2891796 7.12524414,29.118042 L7.12524414,17.4551391 L1.55731203,17.4551391 C1.38617443,17.4551391 1.23123725,17.3857282 1.11907409,17.273565 C1.00691095,17.1614019 0.9375,17.0064648 0.9375,16.8353272 C0.9375,16.6640666 1.00689758,16.5090207 1.11910547,16.3967909 C1.23125823,16.2846161 1.38618599,16.21521 1.55731203,16.21521 L14.7821045,16.21521 L14.7821045,11.2936402 L9.2764282,11.2936402 C9.1053022,11.2936402 8.95037448,11.224234 8.83822173,11.1120593 C8.72601385,10.9998294 8.65661625,10.8447836 8.65661625,10.673523 L8.65661625,6.1514282 C8.65661625,4.71392639 9.24175905,3.41070342 10.1857714,2.46669106 C11.1298277,1.52263482 12.4331043,0.9375 13.8705444,0.9375 L26.1218262,0.9375 C27.5593618,0.9375 28.8626181,1.52259553 29.8066385,2.4666159 C30.7506588,3.41063627 31.3357544,4.71389255 31.3357544,6.1514282 L31.3357544,10.673523 C31.3357544,10.8448047 31.2664101,10.9998905 31.1541883,11.1121343 C31.042047,11.2242975 30.887108,11.2936402 30.7159423,11.2936402 L25.2102661,11.2936402 L25.2102661,16.21521 L38.4350586,16.21521 C38.6062242,16.21521 38.7611633,16.2845526 38.8733046,16.3967159 C38.9855264,16.5089597 39.0548706,16.6640455 39.0548706,16.8353272 C39.0548706,17.0064858 38.985513,17.161463 38.873336,17.27364 Z M30.0961304,10.053711 L30.0961304,6.15142826 C30.0961304,5.0557089 29.6508039,4.06190198 28.9310782,3.34217626 C28.2113525,2.62245055 27.2175455,2.1771241 26.1218262,2.1771241 L13.8705444,2.1771241 C12.7748251,2.1771241 11.7810181,2.62245055 11.0612924,3.34217626 C10.3415667,4.06190198 9.89624023,5.0557089 9.89624023,6.15142826 L9.89624023,10.053711 L30.0961304,10.053711 Z M23.9706421,16.21521 L23.9706421,11.2936401 L16.0220337,11.2936401 L16.0220337,16.21521 L23.9706421,16.21521 Z M8.36486816,17.4551392 L8.36486816,28.49823 L31.6275024,28.49823 L31.6275024,17.4551392 L8.36486816,17.4551392 Z" id="Shape"></path>
        </g>
    </g>
</svg>
