<svg xmlns="http://www.w3.org/2000/svg" xmlns:xlink="http://www.w3.org/1999/xlink" width="16" height="16" viewBox="0 0 16 16">
  <defs>
    <circle id="checkbox-a" cx="8" cy="8" r="7"/>
    <filter id="checkbox-b" width="142.9%" height="142.9%" x="-21.4%" y="-21.4%" filterUnits="objectBoundingBox">
      <feGaussianBlur in="SourceAlpha" result="shadowBlurInner1" stdDeviation="2.5"/>
      <feOffset dy="1" in="shadowBlurInner1" result="shadowOffsetInner1"/>
      <feComposite in="shadowOffsetInner1" in2="SourceAlpha" k2="-1" k3="1" operator="arithmetic" result="shadowInnerInner1"/>
      <feColorMatrix in="shadowInnerInner1" values="0 0 0 0 0   0 0 0 0 0   0 0 0 0 0  0 0 0 0.2 0"/>
    </filter>
  </defs>
  <g fill="none" fill-rule="evenodd">
    <use fill="#F2F3F3" xlink:href="#checkbox-a"/>
    <use fill="#000" filter="url(#checkbox-b)" xlink:href="#checkbox-a"/>
    <path fill="#004F9F" d="M8,0 C12.4219971,0 16,3.57861328 16,8 C16,12.4219971 12.4213867,16 8,16 C3.57800294,16 0,12.4213867 0,8 C0,3.57800294 3.57861328,0 8,0 Z M8,1.25 C4.26892091,1.25 1.25,4.26940919 1.25,8 C1.25,11.7310791 4.26940919,14.75 8,14.75 C11.7310791,14.75 14.75,11.7305908 14.75,8 C14.75,4.26892091 11.7305908,1.25 8,1.25 Z"/>
    <path fill="#4CAFE4" d="M12,8 C12,5.78899017 10.2107205,4 8,4 C5.78899017,4 4,5.78927952 4,8 C4,10.2110098 5.78927952,12 8,12 C10.2110098,12 12,10.2107205 12,8 Z"/>
  </g>
</svg>
