<?xml version="1.0" encoding="UTF-8"?>
<svg width="9px" height="18px" viewBox="0 0 9 18" version="1.1" xmlns="http://www.w3.org/2000/svg" xmlns:xlink="http://www.w3.org/1999/xlink">
    <!-- Generator: sketchtool 58 (101010) - https://sketch.com -->
    <title>Select</title>
    <desc>Created with sketchtool.</desc>
    <g id="Main" stroke="none" stroke-width="1" fill="none" fill-rule="evenodd">
        <g id="01-landing-webinar-thankyou-v.soco" transform="translate(-435.000000, -2342.000000)" fill="#777772">
            <g id="3️⃣/Navigation/Footer-mkt" transform="translate(0.000000, 2251.000000)">
                <g id="Group" transform="translate(400.400000, 10.000000)">
                    <g id="Group-4" transform="translate(0.000000, 38.000000)">
                        <g id="Stacked-Group-2" transform="translate(0.000000, 42.000000)">
                            <g id="Group-3">
                                <g id="ui/Medium/select" transform="translate(29.000000, 0.000000)">
                                    <path d="M9.44763184,2.18200684 C9.75265504,1.87683105 10.247345,1.87683105 10.5523682,2.18200684 L13.9117432,5.54122926 C14.2169189,5.84640504 14.2169189,6.34109496 13.9117432,6.64611816 C13.60672,6.95129395 13.11203,6.95129395 12.8070068,6.64611816 L10,3.83926391 L7.19299316,6.64611816 C6.88796996,6.95129395 6.39328004,6.95129395 6.08825684,6.64611816 C5.78308105,6.34109496 5.78308105,5.84640504 6.08825684,5.54122926 L9.44763184,2.18200684 Z M10.5523682,17.8570557 C10.247345,18.1622314 9.75265504,18.1622314 9.44763184,17.8570557 L6.08825684,14.4978332 C5.78308105,14.1926575 5.78308105,13.6979675 6.08825684,13.3929443 C6.39328004,13.0877686 6.88796996,13.0877686 7.19299316,13.3929443 L10,16.1997986 L12.8070068,13.3929443 C13.11203,13.0877686 13.60672,13.0877686 13.9117432,13.3929443 C14.2169189,13.6979675 14.2169189,14.1926575 13.9117432,14.4978332 L10.5523682,17.8570557 Z" id="Shape"></path>
                                </g>
                            </g>
                        </g>
                    </g>
                </g>
            </g>
        </g>
    </g>
</svg>
