<svg xmlns="http://www.w3.org/2000/svg" width="512" height="512" viewBox="0 0 512 512">
  <g fill="none" fill-rule="evenodd">
    <path fill="#000" d="M198.236994,381.767213 C201.728324,385.255738 206.092486,387 210.893064,387 C215.257225,387 220.057803,385.255738 223.549133,381.767213 L338.763006,266.645902 C342.254335,263.157377 344,258.796721 344,254 C344,249.203279 342.254335,244.842623 338.763006,241.354098 L223.549133,126.232787 C216.566474,119.255738 205.219653,119.255738 198.236994,126.232787 C191.254335,133.209836 191.254335,144.547541 198.236994,151.52459 L300.794798,254 L198.236994,356.47541 C191.254335,363.452459 191.254335,374.790164 198.236994,381.767213 L198.236994,381.767213 Z"/>
    <path fill="#000" d="M256,510 C395.89673,510 510,396.333907 510,256 C510,115.666093 395.89673,2 256,2 C116.10327,2 2,116.10327 2,256 C2,395.89673 116.10327,510 256,510 Z M256,37.848537 C376.223752,37.848537 474.151463,135.776248 474.151463,256 C474.151463,376.223752 376.223752,474.151463 256,474.151463 C135.776248,474.151463 37.848537,376.223752 37.848537,256 C37.848537,135.776248 135.776248,37.848537 256,37.848537 Z"/>
  </g>
</svg>
