<svg xmlns="http://www.w3.org/2000/svg" width="512" height="512" viewBox="0 0 512 512">
  <path fill-rule="evenodd" d="M512,416 L512,492 C512,503.046875 503.046875,512 492,512 L20,512 C8.953125,512 0,503.046875 0,492 L0,416 C0,404.953125 8.953125,396 20,396 C31.046875,396 40,404.953125 40,416 L40,472 L472,472 L472,416 C472,404.953125 480.953125,396 492,396 C503.046875,396 512,404.953125 512,416 Z M241.855469,430.140625 C249.546875,437.835938 262.273438,438.011719 270.144531,430.140625 L383.277344,317.003906 C391.089844,309.195312 391.089844,296.53125 383.277344,288.722656 C375.46875,280.910156 362.804688,280.910156 354.996094,288.722656 L276,367.714844 L276,20 C276,8.953125 267.046875,0 256,0 C244.953125,0 236,8.953125 236,20 L236,367.714844 L157.003906,288.722656 C149.195312,280.910156 136.53125,280.910156 128.722656,288.722656 C120.910156,296.53125 120.910156,309.195312 128.722656,317.003906 L241.855469,430.140625 Z"/>
</svg>
