<svg xmlns="http://www.w3.org/2000/svg" width="512" height="512" viewBox="0 0 512 512">
  <path fill-rule="evenodd" d="M257,0 C115.515625,0 1,114.496094 1,256 C1,397.484375 115.496094,512 257,512 C398.484375,512 513,397.503906 513,256 C513,114.515625 398.503906,0 257,0 Z M257,472 C137.621094,472 41,375.394531 41,256 C41,136.621094 137.605469,40 257,40 C376.378906,40 473,136.605469 473,256 C473,375.378906 376.394531,472 257,472 Z M457.460938,246.152344 C428.589844,195.105469 354.867188,126.351562 257,126.351562 C169.769531,126.351562 91.410156,184.496094 56.539062,246.152344 C53.085938,252.261719 53.085938,259.738281 56.539062,265.847656 C85.410156,316.894531 159.132812,385.648438 257,385.648438 C344.230469,385.648438 422.589844,327.503906 457.460938,265.847656 C460.914062,259.738281 460.914062,252.261719 457.460938,246.152344 Z M257,345.648438 C190.75,345.648438 134.335938,307.769531 97.804688,255.984375 C115.527344,230.84375 169.523438,166.351562 257,166.351562 C323.25,166.351562 379.652344,204.21875 416.183594,256 C379.558594,307.914062 323.160156,345.648438 257,345.648438 Z M257,198.179688 C225.117188,198.179688 199.179688,224.117188 199.179688,256 C199.179688,287.882812 225.117188,313.820312 257,313.820312 C288.882812,313.820312 314.820312,287.882812 314.820312,256 C314.820312,224.117188 288.882812,198.179688 257,198.179688 Z M257,273.820312 C247.175781,273.820312 239.179688,265.824219 239.179688,256 C239.179688,246.175781 247.175781,238.179688 257,238.179688 C266.824219,238.179688 274.820312,246.175781 274.820312,256 C274.820312,265.824219 266.824219,273.820312 257,273.820312 Z"/>
</svg>
